<svg xmlns="http://www.w3.org/2000/svg" viewBox="0 0 128 128">
  <g id="twitter" fill-rule="nonzero" fill="#FFFFFF"><path d="M186.501996,47.2672905 C186.501996,103.175728 143.665723,167.595145 65.3744,167.595145 C41.2544237,167.595145 18.8478243,160.655641 6.17210683e-05,148.609918 C3.42681543,149.00294 6.72210326,149.133539 10.2809401,149.133539 C30.1828985,149.133539 48.5035632,142.455845 63.1339252,131.064955 C44.4176285,130.672546 28.7330706,118.494999 23.3293911,101.735466 C25.9654979,102.128488 28.6016047,102.390298 31.3691774,102.390298 C35.1915632,102.390298 39.013949,101.866677 42.5727858,100.950035 C23.0658421,97.0222686 8.43548012,80.0009255 8.43548012,59.4442248 L8.43548012,58.9206044 C14.1033258,62.0629401 20.6932843,64.0268234 27.6788748,64.2886336 C16.2117175,56.6942978 8.69902908,43.7319328 8.69902908,29.0674949 C8.69902908,21.2113489 10.808038,14.010035 14.4983407,7.7253635 C35.4551122,33.3882832 66.9556938,50.1478161 102.279278,51.9804876 C101.620097,48.8381518 101.225082,45.5652175 101.225082,42.2916701 C101.225082,18.9856555 120.204928,-0.000183941606 143.797189,-0.000183941606 C156.055611,-0.000183941606 167.126519,5.10664818 174.903373,13.3552029 C184.525071,11.5219182 193.751136,7.98717372 201.922388,3.14215182 C198.759183,12.9627942 192.037759,21.2113489 183.206709,26.4487796 C191.77421,25.5321372 200.077545,23.1752321 207.722317,19.9016847 C201.922388,28.2814511 194.673249,35.7451883 186.369913,41.7680496 C186.501996,43.6007212 186.501996,45.4340058 186.501996,47.2672905 Z" id="Shape"></path></g>
  <g id="altitude" fill-rule="evenodd">
    <path d="M36.453 17.339l5.726 9.056c.908 1.436.51 3.357-.888 4.29-1.398.932-3.268.524-4.177-.912l-5.76-9.11c-6.78 4.966-12.368 11.417-16.263 18.86l10.048 4.725c1.567.737 2.245 2.616 1.514 4.196a3.12 3.12 0 0 1-4.16 1.527l-9.993-4.7a53.55 53.55 0 0 0-3.518 19.144c0 1.777.087 3.543.258 5.294l10.784-1.451c1.706-.23 3.284.909 3.524 2.543.24 1.634-.949 3.146-2.656 3.375l-10.737 1.445a53.445 53.445 0 0 0 5.677 15.057l97.88-.767a53.422 53.422 0 0 0 5.225-14.143l-11.83-1.592c-1.706-.23-2.895-1.74-2.655-3.375.24-1.634 1.818-2.773 3.524-2.543l11.892 1.6c.18-1.8.272-3.615.272-5.443 0-18.582-9.465-34.998-23.923-44.85l-6.454 10.208c-.908 1.436-2.779 1.844-4.177.912-1.399-.933-1.796-2.854-.888-4.29l6.309-9.978c-7.401-3.937-15.815-6.274-24.761-6.535v11.47c0 1.71-1.257 3.098-2.807 3.098s-2.807-1.387-2.807-3.099V9.991a55.985 55.985 0 0 0-24.179 7.348zm82.796 79.433l-1.217 2.043-107.507.843-1.25-2.022A61.916 61.916 0 0 1 0 64.969C0 30.189 28.656 2 64 2s64 28.19 64 62.969a61.904 61.904 0 0 1-8.75 31.803z"/>
    <path d="M68.983 57.168c22.401-8.452 34.588-12.622 36.56-12.51-.315 1.526-11.265 8.613-32.848 21.263-.658 4.478-4.594 7.92-9.352 7.92-5.218 0-9.448-4.142-9.448-9.25 0-5.11 4.23-9.25 9.448-9.25a9.54 9.54 0 0 1 5.64 1.827zM32 127a3 3 0 0 1-3-3v-16a3 3 0 0 1 3-3h62a3 3 0 0 1 3 3v16a3 3 0 0 1-3 3H32z"/>
  </g>
  <g id="antenna">
    <path d="M46.752 38.215c0-8.799 6.951-15.759 15.641-15.759 8.422 0 15.641 6.96 15.641 15.76 0 6.458-4.01 11.812-9.384 14.182V128H56.137V52.398c-5.642-2.102-9.385-7.724-9.385-14.183zM28.453-.503l5.728 5.728a41.868 41.868 0 0 0-2.019 1.89c-16.189 16.189-16.124 42.502.146 58.772.66.66 1.337 1.294 2.029 1.9l-5.7 5.7a47.946 47.946 0 0 1-4.155-3.7c-18.44-18.44-18.514-48.262-.166-66.61a47.242 47.242 0 0 1 4.137-3.68z"/>
    <path d="M40.111 63.519c-12.635-14.545-12.69-36.205-.126-50.687l5.035 5.035c-8.902 12.011-8.86 28.586.1 40.642l-5.009 5.01zm56.222 9.966l-5.728-5.727a41.868 41.868 0 0 0 2.019-1.89c16.19-16.19 16.124-42.503-.146-58.773a42.495 42.495 0 0 0-2.028-1.9l5.699-5.7a47.946 47.946 0 0 1 4.155 3.701c18.44 18.44 18.514 48.262.166 66.61a47.242 47.242 0 0 1-4.137 3.68z"/>
    <path d="M84.675 12.832c12.635 14.545 12.69 36.205.126 50.687l-5.035-5.035c8.902-12.011 8.861-28.586-.1-40.642l5.009-5.01z"/>
  </g>
  <path id="antenna-off" fill-rule="evenodd" d="M53 128H0l21.893-25 6.562 6.126 14.481-1.393L53 128zm-3.581-57.595L70.708 58.24 58.542 79.53 79 99.986 30.026 104 22 95.974 26.013 47l23.406 23.405z"/>
  <g id="antenna-receive" fill-rule="evenodd">
    <circle cx="84" cy="49" r="4"/>
    <circle cx="99.5" cy="34.5" r="6.5"/>
    <circle cx="115.5" cy="19.5" r="8.5"/>
    <path d="M53 128H0l21.893-25 6.562 6.126 14.481-1.393L53 128zm-3.581-57.595L70.708 58.24 58.542 79.53 79 99.986 30.026 104 22 95.974 26.013 47l23.406 23.405z"/>
  </g>
  <g id="antenna-transmit" fill-rule="evenodd">
    <path d="M127.559 74h-7.254c.077-1.253.116-2.517.116-3.79 0-33.485-27.146-60.631-60.632-60.631-1.272 0-2.536.04-3.789.116V2.441A65.095 65.095 0 0 1 63.579 2C99.158 2 128 30.842 128 66.421c0 2.564-.15 5.093-.441 7.579z"/>
    <path d="M56 17c30.928 0 56 25.072 56 56h-8.13C103.52 46.719 82.281 25.48 56 25.13V17z"/>
    <path d="M56 32c21.375 2.049 38.343 19.807 40 42h-7.107C86.437 56.29 73.034 42.235 56 39.395V32zm-3 96H0l21.893-25 6.562 6.126 14.481-1.393L53 128zm-3.581-57.595L70.708 58.24 58.542 79.53 79 99.986 30.026 104 22 95.974 26.013 47l23.406 23.405z"/>
  </g>
  <g id="equipment" fill-rule="evenodd">
    <path d="M0 11.255C0 7.248 3.164 4 7.11 4h113.78c3.927 0 7.11 3.22 7.11 7.255v21.773c0 4.007-3.164 7.255-7.11 7.255H7.11c-3.927 0-7.11-3.22-7.11-7.255V11.255zm7.055 3.295v14.175c0 1.905 1.582 3.495 3.533 3.495h106.824c1.923 0 3.533-1.564 3.533-3.495V14.55c0-1.904-1.582-3.495-3.533-3.495H10.588c-1.923 0-3.533 1.565-3.533 3.495z"/>
    <path d="M18.142 18.11h7.055v7.055h-7.055zm14.11 0h7.055v7.055h-7.055zm14.11 0h7.055v7.055h-7.055zM0 53.586c0-4.007 3.164-7.255 7.11-7.255h113.78c3.927 0 7.11 3.22 7.11 7.255v21.773c0 4.007-3.164 7.255-7.11 7.255H7.11c-3.927 0-7.11-3.22-7.11-7.255V53.586zm7.055 3.295v14.175c0 1.904 1.582 3.495 3.533 3.495h106.824c1.923 0 3.533-1.565 3.533-3.495V56.881c0-1.904-1.582-3.495-3.533-3.495H10.588c-1.923 0-3.533 1.565-3.533 3.495z"/>
    <path d="M18.142 61.449h7.055v7.055h-7.055zm14.11 0h7.055v7.055h-7.055zm14.11 0h7.055v7.055h-7.055zM0 95.917c0-4.007 3.164-7.256 7.11-7.256h113.78c3.927 0 7.11 3.22 7.11 7.256v21.773c0 4.007-3.164 7.255-7.11 7.255H7.11c-3.927 0-7.11-3.22-7.11-7.255V95.917zm7.055 4.302v14.176c0 1.904 1.582 3.495 3.533 3.495h106.824c1.923 0 3.533-1.565 3.533-3.495v-14.176c0-1.904-1.582-3.495-3.533-3.495H10.588c-1.923 0-3.533 1.565-3.533 3.495z"/>
    <path d="M18.142 103.78h7.055v7.055h-7.055zm14.11 0h7.055v7.055h-7.055zm14.11 0h7.055v7.055h-7.055z"/>
  </g>
  <path id="mission" fill-rule="evenodd" d="M64 127C29.206 127 1 98.794 1 64S29.206 1 64 1s63 28.206 63 63-28.206 63-63 63zm0-9.947c29.3 0 53.053-23.753 53.053-53.053 0-29.3-23.753-53.053-53.053-53.053C34.7 10.947 10.947 34.7 10.947 64c0 29.3 23.753 53.053 53.053 53.053zm.492-12.694c-22.018 0-39.867-17.849-39.867-39.867 0-22.018 17.85-39.867 39.867-39.867 22.018 0 39.867 17.85 39.867 39.867 0 22.018-17.849 39.867-39.867 39.867zm0-9.966c16.514 0 29.9-13.387 29.9-29.9 0-16.514-13.386-29.901-29.9-29.901-16.513 0-29.9 13.387-29.9 29.9 0 16.514 13.387 29.9 29.9 29.9zM64 80.734c-9.242 0-16.734-7.492-16.734-16.734S54.758 47.266 64 47.266 80.734 54.758 80.734 64 73.242 80.734 64 80.734z"/>
  <g id="payload">
    <path d="M18.345 35.566l45.81 24.04 46.474-24.389-45.376-25.112-46.908 25.461zm-4.331 7.425v48.703l45.353 24.184V66.791l-45.353-23.8zm101.407-.591L68.94 66.79v50.223l46.48-25.272V42.4zM64.728 0l58.58 32.427v63.715L64.728 128 5 96.142V32.427L64.728 0z"/>
    <ellipse cx="63.591" cy="23.579" rx="3.38" ry="3.368"/>
    <ellipse cx="63.591" cy="33.684" rx="3.38" ry="3.368"/>
    <ellipse cx="63.591" cy="44.912" rx="3.38" ry="3.368"/>
    <ellipse cx="79.365" cy="72.982" rx="3.38" ry="3.368"/>
    <ellipse cx="90.633" cy="78.596" rx="3.38" ry="3.368"/>
    <ellipse cx="101.9" cy="84.211" rx="3.38" ry="3.368"/>
    <path d="M25.281 87.579a3.374 3.374 0 0 1-3.38-3.368 3.374 3.374 0 0 1 3.38-3.369 3.374 3.374 0 0 1 3.38 3.369 3.374 3.374 0 0 1-3.38 3.368zM48.943 76.35a3.374 3.374 0 0 1-3.38-3.368 3.374 3.374 0 0 1 3.38-3.368 3.374 3.374 0 0 1 3.38 3.368 3.374 3.374 0 0 1-3.38 3.369zm-12.394 5.615a3.374 3.374 0 0 1-3.38-3.369 3.374 3.374 0 0 1 3.38-3.368 3.374 3.374 0 0 1 3.38 3.368 3.374 3.374 0 0 1-3.38 3.369z"/>
  </g>
  <path id="processor" fill-rule="evenodd" d="M16 22.44c0-3.557 2.903-6.44 6.44-6.44h84.12c3.557 0 6.44 2.903 6.44 6.44v84.12c0 3.557-2.903 6.44-6.44 6.44H22.44c-3.557 0-6.44-2.903-6.44-6.44V22.44zM28 34a6 6 0 1 0 0-12 6 6 0 0 0 0 12zm71 71a6 6 0 1 0 0-12 6 6 0 0 0 0 12zM33 0h7v10h-7zm19 0h7v10h-7zm19 0h7v10h-7zm19 0h7v10h-7zM33 118h7v10h-7zM0 33h10v7H0zm0 19h10v7H0zm0 19h10v7H0zm0 19h10v7H0zm118-57h10v7h-10zm0 19h10v7h-10zm0 19h10v7h-10zm0 19h10v7h-10zm-66 28h7v10h-7zm19 0h7v10h-7zm19 0h7v10h-7z"/>
  <path id="processor-alt" fill-rule="evenodd" d="M57 81v3.285H0V47h46.652V13.667H128V27H57v54zm7.146-4V30.484H128V84H99.03v19.9H18V128H2.991A2.992 2.992 0 0 1 0 125.009V91h81.587l.008-1H82V77h-.296l.216-25.86H128l-.958-7.14H70.658v33h-6.512zM128 7H37.984v29.168H0V2.991A2.992 2.992 0 0 1 2.991 0H125.01A2.992 2.992 0 0 1 128 2.991V7zm0 83.753v34.256a2.992 2.992 0 0 1-2.991 2.991H32.78v-16.494h73.714V90.753H128z"/>
  <path id="netcom" d="M41.884 78.97a25.711 25.711 0 0 1-4.575-14.683c0-14.265 11.565-25.83 25.83-25.83 2.966 0 5.813.5 8.466 1.42l5.457-12.857a14.347 14.347 0 0 1-7.609-12.67C69.453 6.425 75.878 0 83.803 0c7.924 0 14.35 6.425 14.35 14.35S91.726 28.7 83.802 28.7a14.39 14.39 0 0 1-3.572-.448L74.735 41.2c8.442 4.248 14.234 12.992 14.234 23.087 0 .947-.05 1.882-.15 2.803l11.101 2.767c1.792-5.882 7.261-10.161 13.73-10.161 7.926 0 14.35 6.422 14.35 14.35 0 7.924-6.425 14.349-14.35 14.349S99.3 81.97 99.3 74.045c0-.28.009-.558.023-.834L88.23 70.445a25.862 25.862 0 0 1-10.526 15.177l6.121 14.422a14.334 14.334 0 0 1 4.57-.743c7.925 0 14.35 6.424 14.35 14.35 0 7.924-6.425 14.349-14.35 14.349s-14.349-6.425-14.349-14.35a14.34 14.34 0 0 1 6.707-12.147l-6.001-14.137a25.721 25.721 0 0 1-11.612 2.75c-7.59 0-14.415-3.273-19.141-8.485L26.524 96.293a14.283 14.283 0 0 1 2.175 7.599c0 7.926-6.424 14.35-14.35 14.35-7.924 0-14.349-6.424-14.349-14.35 0-7.925 6.425-14.349 14.35-14.349 3.911 0 7.456 1.566 10.045 4.103l17.49-14.676z"/>
  <path id="propulsion-power" d="M28.588 0h64.824C96.498 0 99 2.513 99 5.614v116.772c0 3.1-2.502 5.614-5.588 5.614H28.588c-3.086 0-5.588-2.513-5.588-5.614V5.614C23 2.514 25.502 0 28.588 0zm47.258 11L34 62.038l22.666 6.268L38.795 118 85 62.485l-21.795-7.163L75.845 11z"/>
  <path id="thermal" d="M34.273 17.963C34.273 8.6 41.848 1 51.203 1h.593c9.356 0 16.931 7.6 16.931 16.963v56.85C76.3 80.233 81 89.018 81 98.645 81 114.868 67.782 128 51.5 128S22 114.868 22 98.646c0-9.627 4.7-18.412 12.273-23.834V17.963zm7.272 60.63C34.112 82.243 29 89.851 29 98.646 29 110.992 39.074 121 51.5 121S74 110.992 74 98.646c0-8.795-5.112-16.404-12.545-20.053a10.02 10.02 0 0 0 .272-2.325V17.963c0-5.502-4.446-9.963-9.93-9.963h-.593c-5.485 0-9.931 4.46-9.931 9.963v58.305c0 .8.094 1.579.272 2.325zm5.568 5.21V32h8.774v51.803C62.31 85.684 67 91.593 67 98.59 67 107.1 60.06 114 51.5 114c-8.56 0-15.5-6.9-15.5-15.411 0-6.997 4.69-12.905 11.113-14.786zM78 15h21v6.913H78V15zm0 11.522h15.167v6.913H78v-6.913zm0 11.521h21v6.914H78v-6.914zm0 11.522h15.167v6.913H78v-6.913zm0 11.522h21V68H78v-6.913z"/>
  <path id="satellite-off" fill-rule="evenodd" d="M32 48.867L49.8 31 66 58.156 57.654 67zM14.032 100L0 86.404l21.408-21.622L37.878 60 41 63.455l-6.425 17.628zM85.968 0L100 13.596 78.592 35.218 62.122 40 59 36.545l6.425-17.628z"/>
  <g id="satellite-receive" fill-rule="evenodd">
    <ellipse cx="83.5" cy="74" rx="4.5" ry="4"/>
    <circle cx="101" cy="87" r="6"/>
    <circle cx="119.5" cy="103.5" r="8.5"/>
    <path d="M32 48.867L49.8 31 66 58.156 57.654 67zM14.032 100L0 86.404l21.408-21.622L37.878 60 41 63.455l-6.425 17.628zM85.968 0L100 13.596 78.592 35.218 62.122 40 59 36.545l6.425-17.628z"/>
  </g>
  <g id="satellite-transmit" fill-rule="evenodd">
    <path d="M61 126.59v-10.285c1.166.077 2.341.116 3.526.116 29.213 0 52.895-23.682 52.895-52.895 0-1.185-.039-2.36-.116-3.526h10.285c.27 2.313.41 4.667.41 7.053C128 100.16 101.16 127 68.053 127c-2.386 0-4.74-.14-7.053-.41z"/>
    <path d="M107 60c-1.737 24.606-21.394 44.263-46 46v-9.115C80.027 94.07 95.07 79.027 97.885 60H107zm-19 0c-3.688 13.039-13.961 23.312-27 27v-7.957A34.661 34.661 0 0 0 80.043 60H88zM32 48.867L49.8 31 66 58.156 57.654 67zM14.032 100L0 86.404l21.408-21.622L37.878 60 41 63.455l-6.425 17.628zM85.968 0L100 13.596 78.592 35.218 62.122 40 59 36.545l6.425-17.628z"/>
  </g>
  <g id="progress">
    <circle cx="60" cy="60" r="56" fill="transparent" stroke="rgba(40, 63, 88, 1)" stroke-width="10" transform="rotate(-90 61 60)"/>
    <circle cx="60" cy="60" r="56" fill="transparent" stroke-dasharray="351.8583772 351.8583772" stroke-dashoffset="var(--monitoring-progress, 1)" stroke-linecap="round" stroke-width="10" class="progress-ring__circle" transform="rotate(-90 61 60)"/>
  </g>
  <g id="add-large" fill-rule="evenodd">
    <path d="M63.5 127C28.43 127 0 98.57 0 63.5S28.43 0 63.5 0 127 28.43 127 63.5 98.57 127 63.5 127zm0-10.583c29.225 0 52.917-23.692 52.917-52.917S92.725 10.583 63.5 10.583 10.583 34.275 10.583 63.5s23.692 52.917 52.917 52.917z"/>
    <path d="M66.5 59.5H91v7H66.5V91h-7V66.5H35v-7h24.5V35h7v24.5z"/>
  </g>
  <path id="add-small" fill-rule="evenodd" d="M66.5 59.5H91v7H66.5V91h-7V66.5H35v-7h24.5V35h7v24.5z"/>
  <g id="close-large" fill-rule="evenodd">
    <path d="M64 128C28.654 128 0 99.346 0 64 0 28.654 28.654 0 64 0c35.346 0 64 28.654 64 64 0 35.346-28.654 64-64 64zm0-10.667c29.455 0 53.333-23.878 53.333-53.333S93.455 10.667 64 10.667 10.667 34.545 10.667 64 34.545 117.333 64 117.333z"/>
    <path d="M69.028 64l22.628 22.627-5.029 5.029L64 69.028 41.373 91.656l-5.029-5.029L58.972 64 36.344 41.373l5.029-5.029L64 58.972l22.627-22.628 5.029 5.029L69.028 64z"/>
  </g>
  <path id="close-small" fill-rule="evenodd" d="M69.028 64l22.628 22.627-5.029 5.029L64 69.028 41.373 91.656l-5.029-5.029L58.972 64 36.344 41.373l5.029-5.029L64 58.972l22.627-22.628 5.029 5.029L69.028 64z"/>
  <path id="collapse" fill-rule="evenodd" d="M91.316 23.179L114.36.137l13.455 13.455-23.178 23.178 14.002 14.286-44.4 6.472 6.344-45.302 10.734 10.953zm-49.98 78.439L15.09 127.863 1.635 114.408l26.381-26.38-10.862-11.084 44.4-6.472-6.344 45.302-13.874-14.156z"/>
  <path id="expand" fill-rule="evenodd" d="M20.765 90.258l25.318-25.319 14.785 14.784L35.4 105.191l15.386 15.698L2 128l6.97-49.778 11.795 12.036zm84.47-56.035L76.396 63.06 61.612 48.277 90.599 19.29 78.663 7.11 127.45 0l-6.97 49.778-15.244-15.555z"/>
  <path id="lock" fill-rule="evenodd" d="M89.65 60.235V30.118c0-8.317-6.788-15.06-15.162-15.06s-15.163 6.743-15.163 15.06v30.117H44.163V30.118C44.163 13.484 57.74 0 74.488 0c16.748 0 30.325 13.484 30.325 30.118v30.117H89.65zm-60.65 0h90.975V128H29z"/>
  <path id="unlock" fill-rule="evenodd" d="M45.488 60.235V30.118c0-8.317-6.789-15.06-15.163-15.06s-15.162 6.743-15.162 15.06v30.117H0V30.118C0 13.484 13.577 0 30.325 0 47.073 0 60.65 13.484 60.65 30.118v30.117H45.488zm-16.488 0h90.975V128H29z"/>
  <path id="search" fill-rule="evenodd" d="M65.25 70.14l.794.794L54.8 82.18l1.505 1.505-39.619 39.62-14.007-14.008 39.619-39.62 1.837 1.838 11.127-11.127a36.403 36.403 0 0 1-6.5-20.817C48.762 19.374 65.136 3 85.334 3c20.198 0 36.572 16.374 36.572 36.571 0 20.198-16.374 36.572-36.572 36.572A36.4 36.4 0 0 1 65.25 70.14zM85.333 67c15.149 0 27.429-12.28 27.429-27.429 0-15.148-12.28-27.428-27.429-27.428-15.148 0-27.428 12.28-27.428 27.428C57.905 54.72 70.185 67 85.333 67z"/>
  <path id="notifications" d="M15 98h98V86.607c-8.887-4.781-14.766-14.046-14.993-24.476L98 42.147c-.554-10.626-9.486-19.975-24.615-23.962l-3.864-1.018-.55-3.958C68.198 7.647 66.746 6 64 6s-4.198 1.647-4.97 7.21l-.55 3.957-3.865 1.018C39.189 22.25 30 31.773 30 42.002l-.005 20C29.765 72.56 23.887 81.826 15 86.607V98zM64 0c6.129 0 9.767 4.128 10.914 12.383C93.097 17.174 103.404 29 104 42l.005 20c.21 9.58 6.405 17.684 14.995 20.72V104H9V82.72C17.59 79.684 23.786 71.58 23.995 62L24 42c0-13 10.903-24.826 29.086-29.617C54.233 4.128 57.871 0 64 0zM50.847 115.371a15.022 15.022 0 0 0 12.666 6.957c5.25 0 9.973-2.728 12.666-6.957H50.847zm32.832-2.159c-2.594 8.887-10.774 15.116-20.166 15.116-9.392 0-17.572-6.229-20.166-15.116l-1.122-3.84h42.576l-1.122 3.84z"/>
  <g id="settings" fill-rule="evenodd">
    <path d="M39.051 122.954a59.793 59.793 0 0 1-11.301-6.2l3.45-12.664a50.213 50.213 0 0 1-3.774-3.415 52.57 52.57 0 0 1-3.47-3.831l-12.663 3.446C8.96 97.095 6.905 93.353 5.13 89.064a70.531 70.531 0 0 1-4.035-13.407l11.393-6.513a50.235 50.235 0 0 1-.253-5.084c0-1.72.086-3.442.256-5.162L1.099 52.38C2.135 47.442 3.47 43 5.106 39.051a59.781 59.781 0 0 1 6.2-11.301l12.663 3.451a50.275 50.275 0 0 1 3.416-3.774 52.638 52.638 0 0 1 3.83-3.47L27.77 11.294c4.224-2.76 8.31-4.958 12.258-6.592a59.777 59.777 0 0 1 12.376-3.607l6.513 11.394A50.333 50.333 0 0 1 64 12.236c1.72 0 3.442.085 5.162.255L75.68 1.099c4.938 1.036 9.381 2.371 13.33 4.007a59.774 59.774 0 0 1 11.3 6.2L96.859 23.97c1.3 1.06 2.557 2.199 3.774 3.416a52.698 52.698 0 0 1 3.47 3.83l12.663-3.446c2.76 4.224 4.958 8.31 6.592 12.258a59.777 59.777 0 0 1 3.607 12.376l-11.394 6.513c.17 1.668.253 3.363.253 5.084 0 1.72-.085 3.442-.255 5.163l11.392 6.517c-.998 4.848-2.32 9.26-3.969 13.238a60.66 60.66 0 0 1-6.239 11.392l-12.662-3.451a50.274 50.274 0 0 1-3.416 3.774 52.631 52.631 0 0 1-3.83 3.47l3.446 12.663c-4.133 2.724-8.19 4.909-12.167 6.556a60.652 60.652 0 0 1-12.467 3.643l-6.513-11.393c-1.668.169-3.363.253-5.084.253a52.59 52.59 0 0 1-5.163-.256l-6.517 11.392c-4.938-1.036-9.381-2.371-13.329-4.007zm17.563-13.729c2.175.398 4.657.598 7.446.598 2.789 0 5.579-.198 8.37-.595l6.243 10.923c2.233-.531 4.63-1.327 7.192-2.387a63.97 63.97 0 0 0 7.476-3.685l-3.304-12.14c2.063-1.5 4.119-3.274 6.167-5.322a63.799 63.799 0 0 0 5.725-6.566l12.139 3.309c1.203-1.956 2.335-4.214 3.396-6.775a64.034 64.034 0 0 0 2.682-7.892l-10.921-6.247c.398-2.52.598-5.228.598-8.124 0-2.897-.198-5.794-.595-8.691l10.923-6.244c-.532-2.233-1.328-4.63-2.388-7.192a64.016 64.016 0 0 0-3.685-7.476l-12.14 3.304c-1.103-1.66-2.745-3.58-4.925-5.762a73.179 73.179 0 0 0-6.963-6.13l3.31-12.139c-1.903-1.18-4.135-2.302-6.695-3.363a66.097 66.097 0 0 0-7.972-2.715l-6.248 10.921A60.792 60.792 0 0 0 64 18.237c-2.79 0-5.58.198-8.37.595L49.388 7.91c-2.154.5-4.524 1.285-7.112 2.356a65.412 65.412 0 0 0-7.556 3.717l3.304 12.14a60.824 60.824 0 0 0-6.395 5.548 59.215 59.215 0 0 0-5.497 6.34L13.992 34.7c-1.17 1.877-2.29 4.108-3.363 6.695a65.494 65.494 0 0 0-2.715 7.972l10.92 6.248c-.392 2.042-.588 4.59-.589 7.646 0 3.055.195 6.11.587 9.168L7.909 78.673c.499 2.154 1.284 4.525 2.355 7.112a65.358 65.358 0 0 0 3.717 7.556l12.14-3.304a60.823 60.823 0 0 0 5.55 6.395 59.205 59.205 0 0 0 6.338 5.497L34.7 114.068c1.877 1.17 4.108 2.29 6.695 3.362a65.513 65.513 0 0 0 7.972 2.716l7.247-10.92z"/>
    <path d="M64 92c-15.464 0-28-12.536-28-28s12.536-28 28-28 28 12.536 28 28-12.536 28-28 28zm0-6c12.15 0 22-9.85 22-22s-9.85-22-22-22-22 9.85-22 22 9.85 22 22 22z"/>
  </g>
  <g id="resources" fill-rule="evenodd">
    <path fill-rule="nonzero" d="M118.578947,0 L9.42105263,0 C6.89108215,0 4.51282023,1.00592176 2.75937738,2.75935879 C1.00592899,4.51280185 0,6.89106772 0,9.42105263 L0,118.578947 C0,121.108932 1.00592899,123.487198 2.75937709,125.240641 C4.51282023,126.994078 6.89108215,128 9.42105263,128 L118.578947,128 C121.108918,128 123.48718,126.994078 125.240623,125.240641 C126.994071,123.487198 128,121.108932 128,118.578947 L128,9.42105263 C128,6.89106772 126.994071,4.51280185 125.240623,2.75935909 C123.48718,1.00592176 121.108918,0 118.578947,0 Z M9.42105263,6 L118.578947,6 C119.501263,6 120.358607,6.36262675 120.997989,7.00200651 C121.637372,7.64138748 122,8.49873039 122,9.42105263 L122,118.578947 C122,119.50127 121.637372,120.358613 120.997989,120.997994 C120.358607,121.637373 119.501263,122 118.578947,122 L9.42105263,122 C8.49873732,122 7.64139292,121.637373 7.00201104,120.997993 C6.36262812,120.358613 6,119.50127 6,118.578947 L6,9.42105263 C6,8.49873039 6.36262812,7.64138748 7.00201133,7.00200622 C7.64139292,6.36262675 8.49873732,6 9.42105263,6 Z"/>
    <path fill-rule="nonzero" d="M104 27L24 27 24 46 104 46 104 27zM98 33L98 40 30 40 30 33 98 33zM104 54L24 54 24 73 104 73 104 54zM98 60L98 67 30 67 30 60 98 60zM84 81L24 81 24 100 84 100 84 81zM78 87L78 94 30 94 30 87 78 87z"/>
  </g>
  <path id="caution" fill-rule="evenodd" d="M64.031 5c8.461 0 68.88 107.243 63.648 114.184-5.232 6.942-120.805 5.477-127.212 0C-5.941 113.708 55.57 5 64.03 5zm3.45 75.894l1.822-34.893H56.946l1.82 34.893h8.715zM56.803 93.108c0 1.929.547 3.423 1.643 4.483 1.095 1.06 2.642 1.589 4.642 1.589 1.953 0 3.477-.542 4.572-1.625 1.095-1.084 1.643-2.566 1.643-4.447 0-1.952-.542-3.452-1.625-4.5-1.084-1.047-2.613-1.571-4.59-1.571-2.047 0-3.607.512-4.678 1.536-1.072 1.023-1.607 2.535-1.607 4.535z"/>
  <path id="maintenance" d="M95.926 103.205l1.35 6.382 17.594 10.378.26-.26-10.377-17.594-6.382-1.351-21.197-21.197-2.445 2.445 21.197 21.197zm20.12 18.051l.334-.042.042-.334-.917-.54.541.916zm-25.644-15.054L66.21 82.008l10.965-10.965 24.193 24.193 7.228 1.53 14.096 23.898-6.861 6.861-23.898-14.096-1.53-7.227zM51.77 41.492l-2.13 2.13-4.876-4.876-.04-1.186a11.325 11.325 0 0 0-3.322-7.654l-15.77-15.769c-4.458-4.459-11.72-4.437-16.218.061-4.498 4.499-4.52 11.76-.061 16.219l15.769 15.769a11.325 11.325 0 0 0 7.653 3.322l1.187.04 4.876 4.877-2.13 2.13a.85.85 0 0 0-.016 1.2c.311.312 1.421 1.51 1.428 1.517.283.297.524.54.739.74l13.986-13.986c.05-.109.106-.273.157-.48.127-.511.2-1.171.203-1.858.003-.686-.067-1.344-.19-1.852a2.97 2.97 0 0 0-.137-.44.854.854 0 0 0-1.108.096zm5.461-4.276c2.683 2.683 2.656 10.287-.03 12.973L42.14 65.25c-2.116 2.116-4.56 1.52-6.751-.274-.528-.432-1.035-.922-1.64-1.56-.077-.082-1.1-1.184-1.316-1.401a6.854 6.854 0 0 1-1.764-6.657 17.33 17.33 0 0 1-9.806-4.913L5.093 34.676c-6.817-6.816-6.784-17.892.061-24.737C12 3.093 23.075 3.06 29.893 9.877l15.768 15.77a17.33 17.33 0 0 1 4.914 9.806 6.854 6.854 0 0 1 6.656 1.763zM75.27 13.694c-6.933 6.933-7.415 21.71-2.314 33.272l.85 1.93-63.283 60.75c-4.777 5.014-5.442 7.611-1.986 11.067 2.31 2.311 4.968 1.41 9.83-3.223l60.75-63.284 1.93.85c11.562 5.102 26.339 4.62 33.272-2.313 5.535-5.536 8.298-13.703 7.435-18.714l-12.979 12.979-22.002-4.411-5.834-23.294L94.084 6.157c-4.881-.9-13.209 1.93-18.815 7.537zm-4.26-4.26C80.053.39 94.844-3.132 101.24 3.262l2.13 2.13L87.61 21.15l4.08 16.289 15.104 3.028 15.933-15.933 2.124 2.347c6.046 6.678 2.66 21.187-6.274 30.122-8.572 8.57-24.73 9.493-37.998 4.378L22.666 121.71c-3.111 2.975-5.637 4.809-8.28 5.716-3.647 1.251-7.17.488-10.11-2.453-3.417-3.417-4.602-7.143-3.6-10.976.748-2.866 2.52-5.404 5.533-8.559l60.422-58.006c-5.115-13.27-4.193-29.427 4.378-37.998z"/>
  <path id="solar" fill-rule="evenodd" d="M118.153846,14 C123.591713,14 128,18.4225104 128,23.877953 L128,103.122047 C128,108.57749 123.591713,113 118.153846,113 L9.84615385,113 C4.40828718,113 0,108.57749 0,103.122047 L0,23.877953 C0,18.4225104 4.40828718,14 9.84615385,14 L118.153846,14 Z M32,29 L15,29 L15,59 L32,59 L32,29 Z M59,29 L42,29 L42,59 L59,59 L59,29 Z M86,29 L69,29 L69,59 L86,59 L86,29 Z M113,29 L96,29 L96,59 L113,59 L113,29 Z M32,68 L15,68 L15,98 L32,98 L32,68 Z M59,68 L42,68 L42,98 L59,98 L59,68 Z M86,68 L69,68 L69,98 L86,98 L86,68 Z M113,68 L96,68 L96,98 L113,98 L113,68 Z"/>

  <path id="notifications-filled" d="M53,128 C60.2875,128 66.25,122.092308 66.25,114.871795 L39.75,114.871795 C39.75,122.092308 45.64625,128 53,128 Z M92.75,88.6153846 L92.75,55.7948718 C92.75,35.6430769 81.885,18.7733333 62.9375,14.3097436 L62.9375,9.84615385 C62.9375,4.39794872 58.49875,0 53,0 C47.50125,0 43.0625,4.39794872 43.0625,9.84615385 L43.0625,14.3097436 C24.04875,18.7733333 13.25,35.5774359 13.25,55.7948718 L13.25,88.6153846 L0,101.74359 L0,108.307692 L106,108.307692 L106,101.74359 L92.75,88.6153846 Z" transform="translate(11)"/>

  <path id="play" d="M0 0L0 75 59 37.5z" transform="translate(43 26)"/>
  <path id="pause"  d="M0,75 L21.3333333,75 L21.3333333,0 L0,0 L0,75 Z M42.6666667,0 L42.6666667,75 L64,75 L64,0 L42.6666667,0 Z" transform="translate(32 26)"/>
  <path id="stop" d="M0 0L64 0 64 64 0 64z" transform="translate(32 32)"/>

  <g id="refresh" fill-rule="evenodd">
    <path fill-rule="nonzero" d="M94.5078174,33.484375 C86.7998749,25.78125 76.2213884,21 64.4734209,21 C40.9774859,21 22,40.01875 22,63.5 C22,86.98125 40.9774859,106 64.4734209,106 C84.3014384,106 100.833646,92.453125 105.564728,74.125 L94.5078174,74.125 C90.148843,86.503125 78.3477173,95.375 64.4734209,95.375 C46.8780488,95.375 32.5784866,81.084375 32.5784866,63.5 C32.5784866,45.915625 46.8780488,31.625 64.4734209,31.625 C73.2976861,31.625 81.1651032,35.290625 86.9061914,41.08125 L69.7892433,58.1875 L107,58.1875 L107,21 L94.5078174,33.484375 Z"/>
  </g>



  <g id="star-fill" fill-rule="evenodd">
    <path fill-rule="nonzero" d="M64.5 92.172L97.563 112 88.789 74.63 118 49.486 79.534 46.244 64.5 11 49.467 46.244 11 49.486 40.211 74.63 31.437 112z"/>
  </g>

  <g id="star-fill-alt" fill="none" fill-rule="evenodd">
    <path d="M0 0L128 0 128 128 0 128z"/>
    <path fill="#000" fill-rule="nonzero" d="M64.5 92.172L97.563 112 88.789 74.63 118 49.486 79.534 46.244 64.5 11 49.467 46.244 11 49.486 40.211 74.63 31.437 112z"/>
  </g>

  <g id="star" fill-rule="evenodd">    
    <path fill-rule="nonzero" d="M118,49.4863158 L79.5335,46.1905263 L64.5,11 L49.4665,46.2436842 L11,49.4863158 L40.211,74.63 L31.437,112 L64.5,92.1721053 L97.563,112 L88.8425,74.63 L118,49.4863158 Z M64.5,82.2315789 L44.384,94.2984211 L49.734,71.5468421 L31.972,56.2373684 L55.405,54.2173684 L64.5,32.7947368 L73.6485,54.2705263 L97.0815,56.2905263 L79.3195,71.6 L84.6695,94.3515789 L64.5,82.2315789 Z"/>
  </g>

  <path id="hamburger" d="M0,64 L96,64 L96,53.3333333 L0,53.3333333 L0,64 Z M0,37.3333333 L96,37.3333333 L96,26.6666667 L0,26.6666667 L0,37.3333333 Z M0,0 L0,10.6666667 L96,10.6666667 L96,0 L0,0 Z" transform="translate(16 32)"/>

  <path id="delete" d="M5.35714286,85.3333333 C5.35714286,91.2 10.1785714,96 16.0714286,96 L58.9285714,96 C64.8214286,96 69.6428571,91.2 69.6428571,85.3333333 L69.6428571,21.3333333 L5.35714286,21.3333333 L5.35714286,85.3333333 Z M75,5.33333333 L56.25,5.33333333 L50.8928571,0 L24.1071429,0 L18.75,5.33333333 L0,5.33333333 L0,16 L75,16 L75,5.33333333 Z" transform="translate(27 16)"/>
  <path id="help" d="M53,0 C23.744,0 0,23.744 0,53 C0,82.256 23.744,106 53,106 C82.256,106 106,82.256 106,53 C106,23.744 82.256,0 53,0 Z M58.3,90.1 L47.7,90.1 L47.7,79.5 L58.3,79.5 L58.3,90.1 Z M69.271,49.025 L64.501,53.901 C60.685,57.77 58.3,60.95 58.3,68.9 L47.7,68.9 L47.7,66.25 C47.7,60.42 50.085,55.12 53.901,51.251 L60.473,44.573 C62.434,42.665 63.6,40.015 63.6,37.1 C63.6,31.27 58.83,26.5 53,26.5 C47.17,26.5 42.4,31.27 42.4,37.1 L31.8,37.1 C31.8,25.387 41.287,15.9 53,15.9 C64.713,15.9 74.2,25.387 74.2,37.1 C74.2,41.764 72.292,46.004 69.271,49.025 Z" transform="translate(12 10)"/>

  <path id="visibility" d="M58.526603,21.2631579 C73.2114598,21.2631579 85.1296044,33.1705263 85.1296044,47.8421053 C85.1296044,51.2973684 84.4379263,54.54 83.2141883,57.57 L98.7503411,73.0921053 C106.784447,66.3942105 113.115962,57.7294737 117,47.8421053 C107.795362,24.5057895 85.0763984,7.97368421 58.473397,7.97368421 C51.0245566,7.97368421 43.8949523,9.30263158 37.2974079,11.6947368 L48.7899045,23.1768421 C51.8226467,21.9542105 55.0682128,21.2631579 58.526603,21.2631579 Z M5.32060027,6.75105263 L17.4515689,18.8710526 L19.899045,21.3163158 C11.0668486,28.1736842 4.15006821,37.3168421 0,47.8421053 C9.20463847,71.1784211 31.9236016,87.7105263 58.526603,87.7105263 C66.7735334,87.7105263 74.6480218,86.1157895 81.8308322,83.2452632 L84.0654843,85.4778947 L99.6548431,101 L106.412005,94.2489474 L12.0777626,0 L5.32060027,6.75105263 Z M34.7435198,36.1473684 L42.9904502,44.3868421 C42.7244202,45.5031579 42.5648022,46.6726316 42.5648022,47.8421053 C42.5648022,56.6663158 49.6944065,63.7894737 58.526603,63.7894737 C59.6971351,63.7894737 60.8676671,63.63 61.9849932,63.3642105 L70.2319236,71.6036842 C66.6671214,73.3578947 62.7298772,74.4210526 58.526603,74.4210526 C43.8417462,74.4210526 31.9236016,62.5136842 31.9236016,47.8421053 C31.9236016,43.6426316 32.9877217,39.7089474 34.7435198,36.1473684 L34.7435198,36.1473684 Z M57.675307,32.0010526 L74.4351978,48.7457895 L74.5416098,47.8952632 C74.5416098,39.0710526 67.4120055,31.9478947 58.579809,31.9478947 L57.675307,32.0010526 Z" transform="translate(5 16)"/>
  <path id="visibility-off" d="M58.5,0 C31.9090909,0 9.20045455,16.5866667 0,40 C9.20045455,63.4133333 31.9090909,80 58.5,80 C85.0909091,80 107.799545,63.4133333 117,40 C107.799545,16.5866667 85.0909091,0 58.5,0 Z M58.5,66.6666667 C43.8218182,66.6666667 31.9090909,54.72 31.9090909,40 C31.9090909,25.28 43.8218182,13.3333333 58.5,13.3333333 C73.1781818,13.3333333 85.0909091,25.28 85.0909091,40 C85.0909091,54.72 73.1781818,66.6666667 58.5,66.6666667 Z M58.5,24 C49.6718182,24 42.5454545,31.1466667 42.5454545,40 C42.5454545,48.8533333 49.6718182,56 58.5,56 C67.3281818,56 74.4545455,48.8533333 74.4545455,40 C74.4545455,31.1466667 67.3281818,24 58.5,24 Z" transform="translate(6 24)"/>

  <path id="up" d="M42.8,77.575 L74.9,53.5 L42.8,29.425 L42.8,77.575 Z M53.5,0 C23.968,0 0,23.968 0,53.5 C0,83.032 23.968,107 53.5,107 C83.032,107 107,83.032 107,53.5 C107,23.968 83.032,0 53.5,0 Z M53.5,96.3 C29.9065,96.3 10.7,77.0935 10.7,53.5 C10.7,29.9065 29.9065,10.7 53.5,10.7 C77.0935,10.7 96.3,29.9065 96.3,53.5 C96.3,77.0935 77.0935,96.3 53.5,96.3 Z" transform="matrix(0 -1 -1 0 118 117)"/>
  <path id="down"  d="M42.8,77.575 L74.9,53.5 L42.8,29.425 L42.8,77.575 Z M53.5,0 C23.968,0 0,23.968 0,53.5 C0,83.032 23.968,107 53.5,107 C83.032,107 107,83.032 107,53.5 C107,23.968 83.032,0 53.5,0 Z M53.5,96.3 C29.9065,96.3 10.7,77.0935 10.7,53.5 C10.7,29.9065 29.9065,10.7 53.5,10.7 C77.0935,10.7 96.3,29.9065 96.3,53.5 C96.3,77.0935 77.0935,96.3 53.5,96.3 Z" transform="rotate(90 54 64)"/>
  <path id="back" d="M42.8,77.575 L74.9,53.5 L42.8,29.425 L42.8,77.575 Z M53.5,0 C23.968,0 0,23.968 0,53.5 C0,83.032 23.968,107 53.5,107 C83.032,107 107,83.032 107,53.5 C107,23.968 83.032,0 53.5,0 Z M53.5,96.3 C29.9065,96.3 10.7,77.0935 10.7,53.5 C10.7,29.9065 29.9065,10.7 53.5,10.7 C77.0935,10.7 96.3,29.9065 96.3,53.5 C96.3,77.0935 77.0935,96.3 53.5,96.3 Z" transform="matrix(-1 0 0 1 118 10)"/>
  <path id="forward" d="M42.8,77.575 L74.9,53.5 L42.8,29.425 L42.8,77.575 Z M53.5,0 C23.968,0 0,23.968 0,53.5 C0,83.032 23.968,107 53.5,107 C83.032,107 107,83.032 107,53.5 C107,23.968 83.032,0 53.5,0 Z M53.5,96.3 C29.9065,96.3 10.7,77.0935 10.7,53.5 C10.7,29.9065 29.9065,10.7 53.5,10.7 C77.0935,10.7 96.3,29.9065 96.3,53.5 C96.3,77.0935 77.0935,96.3 53.5,96.3 Z" transform="translate(11 10)"/>

  <path id="coat-tail" d="M39.2607422 49.1171875C39.9404297 49.1171875 40.5449219 48.9921875 41.0742188 48.7421875 41.6035156 48.4921875 42.0146484 48.1396484 42.3076172 47.6845703 42.6005859 47.2294922 42.7607422 46.7050781 42.7880859 46.1113281L42.7880859 46.1113281 40.7431641 46.1113281C40.7275391 46.5957031 40.5947266 46.9492188 40.3447266 47.171875 40.0947266 47.3945312 39.7333984 47.5058594 39.2607422 47.5058594 38.7021484 47.5058594 38.3085938 47.3105469 38.0800781 46.9199219 37.8515625 46.5292969 37.7373047 45.8789062 37.7373047 44.96875L37.7373047 44.96875 37.7373047 44.3652344C37.7490234 43.5253906 37.8740234 42.9140625 38.1123047 42.53125 38.3505859 42.1484375 38.7255859 41.9570312 39.2373047 41.9570312 39.7412109 41.9570312 40.1162109 42.0703125 40.3623047 42.296875 40.6083984 42.5234375 40.7392578 42.8964844 40.7548828 43.4160156L40.7548828 43.4160156 42.8056641 43.4160156C42.7197266 42.4589844 42.3623047 41.7080078 41.7333984 41.1630859 41.1044922 40.6181641 40.2724609 40.3457031 39.2373047 40.3457031 38.5185547 40.3457031 37.8857422 40.5166016 37.3388672 40.8583984 36.7919922 41.2001953 36.3730469 41.6845703 36.0820312 42.3115234 35.7910156 42.9384766 35.6455078 43.6699219 35.6455078 44.5058594L35.6455078 44.5058594 35.6455078 44.9277344C35.6455078 46.2597656 35.9677734 47.2910156 36.6123047 48.0214844 37.2568359 48.7519531 38.1396484 49.1171875 39.2607422 49.1171875zM47.2646484 49.1171875C47.9912109 49.1171875 48.6386719 48.9443359 49.2070312 48.5986328 49.7753906 48.2529297 50.2138672 47.7597656 50.5224609 47.1191406 50.8310547 46.4785156 50.9853516 45.7421875 50.9853516 44.9101562L50.9853516 44.9101562 50.9853516 44.5175781C50.9814453 43.6972656 50.8222656 42.9697266 50.5078125 42.3349609 50.1933594 41.7001953 49.7529297 41.2109375 49.1865234 40.8671875 48.6201172 40.5234375 47.9755859 40.3515625 47.2529297 40.3515625 46.5224609 40.3515625 45.8710938 40.5253906 45.2988281 40.8730469 44.7265625 41.2207031 44.2871094 41.7138672 43.9804688 42.3525391 43.6738281 42.9912109 43.5205078 43.7285156 43.5205078 44.5644531L43.5205078 44.5644531 43.5205078 45.0449219C43.5361328 45.8496094 43.7011719 46.5625 44.015625 47.1835938 44.3300781 47.8046875 44.7685547 48.2822266 45.3310547 48.6162109 45.8935547 48.9501953 46.5380859 49.1171875 47.2646484 49.1171875zM47.2646484 47.5117188C46.7177734 47.5117188 46.3056641 47.2871094 46.0283203 46.8378906 45.7509766 46.3886719 45.6123047 45.7460938 45.6123047 44.9101562L45.6123047 44.9101562 45.6181641 44.2832031C45.6767578 42.7363281 46.2216797 41.9628906 47.2529297 41.9628906 47.7802734 41.9628906 48.1855469 42.1826172 48.46875 42.6220703 48.7519531 43.0615234 48.8935547 43.7050781 48.8935547 44.5527344L48.8935547 44.5527344 48.8935547 44.9453125C48.8896484 45.7734375 48.7470703 46.4082031 48.4658203 46.8496094 48.1845703 47.2910156 47.7841797 47.5117188 47.2646484 47.5117188zM53.4580078 49L53.9501953 47.40625 56.7685547 47.40625 57.2666016 49 59.4755859 49 56.3232422 40.46875 54.3896484 40.46875 51.2607422 49 53.4580078 49zM56.2763672 45.8183594L54.4423828 45.8183594 55.3564453 42.859375 56.2763672 45.8183594zM63.5302734 49L63.5302734 42.0566406 66.0908203 42.0566406 66.0908203 40.46875 58.9599609 40.46875 58.9599609 42.0566406 61.4736328 42.0566406 61.4736328 49 63.5302734 49zM73.3798828 49L73.3798828 42.0566406 75.9404297 42.0566406 75.9404297 40.46875 68.8095703 40.46875 68.8095703 42.0566406 71.3232422 42.0566406 71.3232422 49 73.3798828 49zM77.6396484 49L78.1318359 47.40625 80.9501953 47.40625 81.4482422 49 83.6572266 49 80.5048828 40.46875 78.5712891 40.46875 75.4423828 49 77.6396484 49zM80.4580078 45.8183594L78.6240234 45.8183594 79.5380859 42.859375 80.4580078 45.8183594zM86.4697266 49L86.4697266 40.46875 84.4189453 40.46875 84.4189453 49 86.4697266 49zM93.5361328 49L93.5361328 47.4179688 89.9560547 47.4179688 89.9560547 40.46875 87.8994141 40.46875 87.8994141 49 93.5361328 49zM29.9882812 90L29.9882812 76.40625 43.2539062 76.40625 43.2539062 70.078125 29.9882812 70.078125 29.9882812 62.2265625 44.5898438 62.2265625 44.5898438 55.875 21.7617188 55.875 21.7617188 90 29.9882812 90zM56.2382812 90L56.2382812 78.421875 61.4882812 78.421875C65.6445312 78.421875 68.9140625 77.4257812 71.296875 75.4335938 73.6796875 73.4414062 74.8710938 70.78125 74.8710938 67.453125 74.8710938 65.203125 74.3203125 63.1914062 73.21875 61.4179688 72.1171875 59.6445312 70.5625 58.2773438 68.5546875 57.3164062 66.546875 56.3554688 64.2382812 55.875 61.6289062 55.875L61.6289062 55.875 48.0117188 55.875 48.0117188 90 56.2382812 90zM61.6289062 72.0703125L56.2382812 72.0703125 56.2382812 62.2265625 61.7226562 62.2265625C63.2070312 62.2421875 64.3789062 62.7265625 65.2382812 63.6796875 66.0976562 64.6328125 66.5273438 65.90625 66.5273438 67.5 66.5273438 68.953125 66.109375 70.078125 65.2734375 70.875 64.4375 71.671875 63.2226562 72.0703125 61.6289062 72.0703125L61.6289062 72.0703125zM93.2695312 90.46875C96.1757812 90.46875 98.765625 89.7773438 101.039062 88.3945312 103.3125 87.0117188 105.066406 85.0390625 106.300781 82.4765625 107.535156 79.9140625 108.152344 76.96875 108.152344 73.640625L108.152344 73.640625 108.152344 72.0703125C108.136719 68.7890625 107.5 65.8789062 106.242188 63.3398438 104.984375 60.8007812 103.222656 58.84375 100.957031 57.46875 98.6914062 56.09375 96.1132812 55.40625 93.2226562 55.40625 90.3007812 55.40625 87.6953125 56.1015625 85.40625 57.4921875 83.1171875 58.8828125 81.359375 60.8554688 80.1328125 63.4101562 78.90625 65.9648438 78.2929688 68.9140625 78.2929688 72.2578125L78.2929688 72.2578125 78.2929688 74.1796875C78.3554688 77.3984375 79.015625 80.25 80.2734375 82.734375 81.53125 85.21875 83.2851562 87.1289062 85.5351562 88.4648438 87.7851562 89.8007812 90.3632812 90.46875 93.2695312 90.46875zM93.2695312 84.046875C91.0820312 84.046875 89.4335938 83.1484375 88.3242188 81.3515625 87.2148438 79.5546875 86.6601562 76.984375 86.6601562 73.640625L86.6601562 73.640625 86.6835938 71.1328125C86.9179688 64.9453125 89.0976562 61.8515625 93.2226562 61.8515625 95.3320312 61.8515625 96.953125 62.7304688 98.0859375 64.4882812 99.21875 66.2460938 99.7851562 68.8203125 99.7851562 72.2109375L99.7851562 72.2109375 99.7851562 73.78125C99.7695312 77.09375 99.1992188 79.6328125 98.0742188 81.3984375 96.9492188 83.1640625 95.3476562 84.046875 93.2695312 84.046875z"/>
  <path id="constellation" d="M21.0878906 49.1171875C21.7675781 49.1171875 22.3720703 48.9921875 22.9013672 48.7421875 23.4306641 48.4921875 23.8417969 48.1396484 24.1347656 47.6845703 24.4277344 47.2294922 24.5878906 46.7050781 24.6152344 46.1113281L24.6152344 46.1113281 22.5703125 46.1113281C22.5546875 46.5957031 22.421875 46.9492188 22.171875 47.171875 21.921875 47.3945312 21.5605469 47.5058594 21.0878906 47.5058594 20.5292969 47.5058594 20.1357422 47.3105469 19.9072266 46.9199219 19.6787109 46.5292969 19.5644531 45.8789062 19.5644531 44.96875L19.5644531 44.96875 19.5644531 44.3652344C19.5761719 43.5253906 19.7011719 42.9140625 19.9394531 42.53125 20.1777344 42.1484375 20.5527344 41.9570312 21.0644531 41.9570312 21.5683594 41.9570312 21.9433594 42.0703125 22.1894531 42.296875 22.4355469 42.5234375 22.5664062 42.8964844 22.5820312 43.4160156L22.5820312 43.4160156 24.6328125 43.4160156C24.546875 42.4589844 24.1894531 41.7080078 23.5605469 41.1630859 22.9316406 40.6181641 22.0996094 40.3457031 21.0644531 40.3457031 20.3457031 40.3457031 19.7128906 40.5166016 19.1660156 40.8583984 18.6191406 41.2001953 18.2001953 41.6845703 17.9091797 42.3115234 17.6181641 42.9384766 17.4726562 43.6699219 17.4726562 44.5058594L17.4726562 44.5058594 17.4726562 44.9277344C17.4726562 46.2597656 17.7949219 47.2910156 18.4394531 48.0214844 19.0839844 48.7519531 19.9667969 49.1171875 21.0878906 49.1171875zM29.0917969 49.1171875C29.8183594 49.1171875 30.4658203 48.9443359 31.0341797 48.5986328 31.6025391 48.2529297 32.0410156 47.7597656 32.3496094 47.1191406 32.6582031 46.4785156 32.8125 45.7421875 32.8125 44.9101562L32.8125 44.9101562 32.8125 44.5175781C32.8085938 43.6972656 32.6494141 42.9697266 32.3349609 42.3349609 32.0205078 41.7001953 31.5800781 41.2109375 31.0136719 40.8671875 30.4472656 40.5234375 29.8027344 40.3515625 29.0800781 40.3515625 28.3496094 40.3515625 27.6982422 40.5253906 27.1259766 40.8730469 26.5537109 41.2207031 26.1142578 41.7138672 25.8076172 42.3525391 25.5009766 42.9912109 25.3476562 43.7285156 25.3476562 44.5644531L25.3476562 44.5644531 25.3476562 45.0449219C25.3632812 45.8496094 25.5283203 46.5625 25.8427734 47.1835938 26.1572266 47.8046875 26.5957031 48.2822266 27.1582031 48.6162109 27.7207031 48.9501953 28.3652344 49.1171875 29.0917969 49.1171875zM29.0917969 47.5117188C28.5449219 47.5117188 28.1328125 47.2871094 27.8554688 46.8378906 27.578125 46.3886719 27.4394531 45.7460938 27.4394531 44.9101562L27.4394531 44.9101562 27.4453125 44.2832031C27.5039062 42.7363281 28.0488281 41.9628906 29.0800781 41.9628906 29.6074219 41.9628906 30.0126953 42.1826172 30.2958984 42.6220703 30.5791016 43.0615234 30.7207031 43.7050781 30.7207031 44.5527344L30.7207031 44.5527344 30.7207031 44.9453125C30.7167969 45.7734375 30.5742188 46.4082031 30.2929688 46.8496094 30.0117188 47.2910156 29.6113281 47.5117188 29.0917969 47.5117188zM35.9296875 49L35.9296875 43.6914062 38.953125 49 40.9980469 49 40.9980469 40.46875 38.9472656 40.46875 38.9472656 45.7773438 35.9296875 40.46875 33.8730469 40.46875 33.8730469 49 35.9296875 49zM45.5976562 49.1171875C46.578125 49.1171875 47.3496094 48.9042969 47.9121094 48.4785156 48.4746094 48.0527344 48.7558594 47.4667969 48.7558594 46.7207031 48.7558594 45.7871094 48.2949219 45.0546875 47.3730469 44.5234375 46.9941406 44.3046875 46.5097656 44.1005859 45.9199219 43.9111328 45.3300781 43.7216797 44.9179688 43.5380859 44.6835938 43.3603516 44.4492188 43.1826172 44.3320312 42.984375 44.3320312 42.765625 44.3320312 42.515625 44.4384766 42.3095703 44.6513672 42.1474609 44.8642578 41.9853516 45.1542969 41.9042969 45.5214844 41.9042969 45.8847656 41.9042969 46.1728516 42 46.3857422 42.1914062 46.5986328 42.3828125 46.7050781 42.6523438 46.7050781 43L46.7050781 43 48.7558594 43C48.7558594 42.4804688 48.6210938 42.0185547 48.3515625 41.6142578 48.0820312 41.2099609 47.7041016 40.8984375 47.2177734 40.6796875 46.7314453 40.4609375 46.1816406 40.3515625 45.5683594 40.3515625 44.9394531 40.3515625 44.3730469 40.4521484 43.8691406 40.6533203 43.3652344 40.8544922 42.9755859 41.1357422 42.7001953 41.4970703 42.4248047 41.8583984 42.2871094 42.2753906 42.2871094 42.7480469 42.2871094 43.6972656 42.8398438 44.4433594 43.9453125 44.9863281 44.2851562 45.1542969 44.7226562 45.328125 45.2578125 45.5078125 45.7929688 45.6875 46.1669922 45.8613281 46.3798828 46.0292969 46.5927734 46.1972656 46.6992188 46.4316406 46.6992188 46.7324219 46.6992188 46.9980469 46.6005859 47.2041016 46.4033203 47.3505859 46.2060547 47.4970703 45.9375 47.5703125 45.5976562 47.5703125 45.0664062 47.5703125 44.6826172 47.4619141 44.4462891 47.2451172 44.2099609 47.0283203 44.0917969 46.6914062 44.0917969 46.234375L44.0917969 46.234375 42.0292969 46.234375C42.0292969 46.796875 42.1708984 47.2939453 42.4541016 47.7255859 42.7373047 48.1572266 43.1591797 48.4970703 43.7197266 48.7451172 44.2802734 48.9931641 44.90625 49.1171875 45.5976562 49.1171875zM53.9472656 49L53.9472656 42.0566406 56.5078125 42.0566406 56.5078125 40.46875 49.3769531 40.46875 49.3769531 42.0566406 51.890625 42.0566406 51.890625 49 53.9472656 49zM63.2519531 49L63.2519531 47.4179688 59.4316406 47.4179688 59.4316406 45.3847656 62.6660156 45.3847656 62.6660156 43.8554688 59.4316406 43.8554688 59.4316406 42.0566406 63.2636719 42.0566406 63.2636719 40.46875 57.375 40.46875 57.375 49 63.2519531 49zM69.7265625 49L69.7265625 47.4179688 66.1464844 47.4179688 66.1464844 40.46875 64.0898438 40.46875 64.0898438 49 69.7265625 49zM76.2304688 49L76.2304688 47.4179688 72.6503906 47.4179688 72.6503906 40.46875 70.59375 40.46875 70.59375 49 76.2304688 49zM78.7441406 49L79.2363281 47.40625 82.0546875 47.40625 82.5527344 49 84.7617188 49 81.609375 40.46875 79.6757812 40.46875 76.546875 49 78.7441406 49zM81.5625 45.8183594L79.7285156 45.8183594 80.6425781 42.859375 81.5625 45.8183594zM88.8164062 49L88.8164062 42.0566406 91.3769531 42.0566406 91.3769531 40.46875 84.2460938 40.46875 84.2460938 42.0566406 86.7597656 42.0566406 86.7597656 49 88.8164062 49zM94.4355469 49L94.4355469 40.46875 92.3847656 40.46875 92.3847656 49 94.4355469 49zM99.3691406 49.1171875C100.095703 49.1171875 100.743164 48.9443359 101.311523 48.5986328 101.879883 48.2529297 102.318359 47.7597656 102.626953 47.1191406 102.935547 46.4785156 103.089844 45.7421875 103.089844 44.9101562L103.089844 44.9101562 103.089844 44.5175781C103.085938 43.6972656 102.926758 42.9697266 102.612305 42.3349609 102.297852 41.7001953 101.857422 41.2109375 101.291016 40.8671875 100.724609 40.5234375 100.080078 40.3515625 99.3574219 40.3515625 98.6269531 40.3515625 97.9755859 40.5253906 97.4033203 40.8730469 96.8310547 41.2207031 96.3916016 41.7138672 96.0849609 42.3525391 95.7783203 42.9912109 95.625 43.7285156 95.625 44.5644531L95.625 44.5644531 95.625 45.0449219C95.640625 45.8496094 95.8056641 46.5625 96.1201172 47.1835938 96.4345703 47.8046875 96.8730469 48.2822266 97.4355469 48.6162109 97.9980469 48.9501953 98.6425781 49.1171875 99.3691406 49.1171875zM99.3691406 47.5117188C98.8222656 47.5117188 98.4101562 47.2871094 98.1328125 46.8378906 97.8554688 46.3886719 97.7167969 45.7460938 97.7167969 44.9101562L97.7167969 44.9101562 97.7226562 44.2832031C97.78125 42.7363281 98.3261719 41.9628906 99.3574219 41.9628906 99.8847656 41.9628906 100.290039 42.1826172 100.573242 42.6220703 100.856445 43.0615234 100.998047 43.7050781 100.998047 44.5527344L100.998047 44.5527344 100.998047 44.9453125C100.994141 45.7734375 100.851562 46.4082031 100.570312 46.8496094 100.289062 47.2910156 99.8886719 47.5117188 99.3691406 47.5117188zM106.207031 49L106.207031 43.6914062 109.230469 49 111.275391 49 111.275391 40.46875 109.224609 40.46875 109.224609 45.7773438 106.207031 40.46875 104.150391 40.46875 104.150391 49 106.207031 49zM29.9882812 90L29.9882812 76.40625 43.2539062 76.40625 43.2539062 70.078125 29.9882812 70.078125 29.9882812 62.2265625 44.5898438 62.2265625 44.5898438 55.875 21.7617188 55.875 21.7617188 90 29.9882812 90zM56.2382812 90L56.2382812 78.421875 61.4882812 78.421875C65.6445312 78.421875 68.9140625 77.4257812 71.296875 75.4335938 73.6796875 73.4414062 74.8710938 70.78125 74.8710938 67.453125 74.8710938 65.203125 74.3203125 63.1914062 73.21875 61.4179688 72.1171875 59.6445312 70.5625 58.2773438 68.5546875 57.3164062 66.546875 56.3554688 64.2382812 55.875 61.6289062 55.875L61.6289062 55.875 48.0117188 55.875 48.0117188 90 56.2382812 90zM61.6289062 72.0703125L56.2382812 72.0703125 56.2382812 62.2265625 61.7226562 62.2265625C63.2070312 62.2421875 64.3789062 62.7265625 65.2382812 63.6796875 66.0976562 64.6328125 66.5273438 65.90625 66.5273438 67.5 66.5273438 68.953125 66.109375 70.078125 65.2734375 70.875 64.4375 71.671875 63.2226562 72.0703125 61.6289062 72.0703125L61.6289062 72.0703125zM93.2695312 90.46875C96.1757812 90.46875 98.765625 89.7773438 101.039062 88.3945312 103.3125 87.0117188 105.066406 85.0390625 106.300781 82.4765625 107.535156 79.9140625 108.152344 76.96875 108.152344 73.640625L108.152344 73.640625 108.152344 72.0703125C108.136719 68.7890625 107.5 65.8789062 106.242188 63.3398438 104.984375 60.8007812 103.222656 58.84375 100.957031 57.46875 98.6914062 56.09375 96.1132812 55.40625 93.2226562 55.40625 90.3007812 55.40625 87.6953125 56.1015625 85.40625 57.4921875 83.1171875 58.8828125 81.359375 60.8554688 80.1328125 63.4101562 78.90625 65.9648438 78.2929688 68.9140625 78.2929688 72.2578125L78.2929688 72.2578125 78.2929688 74.1796875C78.3554688 77.3984375 79.015625 80.25 80.2734375 82.734375 81.53125 85.21875 83.2851562 87.1289062 85.5351562 88.4648438 87.7851562 89.8007812 90.3632812 90.46875 93.2695312 90.46875zM93.2695312 84.046875C91.0820312 84.046875 89.4335938 83.1484375 88.3242188 81.3515625 87.2148438 79.5546875 86.6601562 76.984375 86.6601562 73.640625L86.6601562 73.640625 86.6835938 71.1328125C86.9179688 64.9453125 89.0976562 61.8515625 93.2226562 61.8515625 95.3320312 61.8515625 96.953125 62.7304688 98.0859375 64.4882812 99.21875 66.2460938 99.7851562 68.8203125 99.7851562 72.2109375L99.7851562 72.2109375 99.7851562 73.78125C99.7695312 77.09375 99.1992188 79.6328125 98.0742188 81.3984375 96.9492188 83.1640625 95.3476562 84.046875 93.2695312 84.046875z"/>
  <path id="mission-alt" d="M42.4541016 49L42.4541016 47.0078125 42.2548828 42.9238281 44.3232422 49 45.6826172 49 47.7451172 42.9296875 47.5458984 47.0078125 47.5458984 49 49.6083984 49 49.6083984 40.46875 46.9013672 40.46875 45.0029297 46.4042969 43.0986328 40.46875 40.3974609 40.46875 40.3974609 49 42.4541016 49zM53.1064453 49L53.1064453 40.46875 51.0556641 40.46875 51.0556641 49 53.1064453 49zM57.8349609 49.1171875C58.8154297 49.1171875 59.5869141 48.9042969 60.1494141 48.4785156 60.7119141 48.0527344 60.9931641 47.4667969 60.9931641 46.7207031 60.9931641 45.7871094 60.5322266 45.0546875 59.6103516 44.5234375 59.2314453 44.3046875 58.7470703 44.1005859 58.1572266 43.9111328 57.5673828 43.7216797 57.1552734 43.5380859 56.9208984 43.3603516 56.6865234 43.1826172 56.5693359 42.984375 56.5693359 42.765625 56.5693359 42.515625 56.6757812 42.3095703 56.8886719 42.1474609 57.1015625 41.9853516 57.3916016 41.9042969 57.7587891 41.9042969 58.1220703 41.9042969 58.4101562 42 58.6230469 42.1914062 58.8359375 42.3828125 58.9423828 42.6523438 58.9423828 43L58.9423828 43 60.9931641 43C60.9931641 42.4804688 60.8583984 42.0185547 60.5888672 41.6142578 60.3193359 41.2099609 59.9414062 40.8984375 59.4550781 40.6796875 58.96875 40.4609375 58.4189453 40.3515625 57.8056641 40.3515625 57.1767578 40.3515625 56.6103516 40.4521484 56.1064453 40.6533203 55.6025391 40.8544922 55.2128906 41.1357422 54.9375 41.4970703 54.6621094 41.8583984 54.5244141 42.2753906 54.5244141 42.7480469 54.5244141 43.6972656 55.0771484 44.4433594 56.1826172 44.9863281 56.5224609 45.1542969 56.9599609 45.328125 57.4951172 45.5078125 58.0302734 45.6875 58.4042969 45.8613281 58.6171875 46.0292969 58.8300781 46.1972656 58.9365234 46.4316406 58.9365234 46.7324219 58.9365234 46.9980469 58.8378906 47.2041016 58.640625 47.3505859 58.4433594 47.4970703 58.1748047 47.5703125 57.8349609 47.5703125 57.3037109 47.5703125 56.9199219 47.4619141 56.6835938 47.2451172 56.4472656 47.0283203 56.3291016 46.6914062 56.3291016 46.234375L56.3291016 46.234375 54.2666016 46.234375C54.2666016 46.796875 54.4082031 47.2939453 54.6914062 47.7255859 54.9746094 48.1572266 55.3964844 48.4970703 55.9570312 48.7451172 56.5175781 48.9931641 57.1435547 49.1171875 57.8349609 49.1171875zM65.3466797 49.1171875C66.3271484 49.1171875 67.0986328 48.9042969 67.6611328 48.4785156 68.2236328 48.0527344 68.5048828 47.4667969 68.5048828 46.7207031 68.5048828 45.7871094 68.0439453 45.0546875 67.1220703 44.5234375 66.7431641 44.3046875 66.2587891 44.1005859 65.6689453 43.9111328 65.0791016 43.7216797 64.6669922 43.5380859 64.4326172 43.3603516 64.1982422 43.1826172 64.0810547 42.984375 64.0810547 42.765625 64.0810547 42.515625 64.1875 42.3095703 64.4003906 42.1474609 64.6132812 41.9853516 64.9033203 41.9042969 65.2705078 41.9042969 65.6337891 41.9042969 65.921875 42 66.1347656 42.1914062 66.3476562 42.3828125 66.4541016 42.6523438 66.4541016 43L66.4541016 43 68.5048828 43C68.5048828 42.4804688 68.3701172 42.0185547 68.1005859 41.6142578 67.8310547 41.2099609 67.453125 40.8984375 66.9667969 40.6796875 66.4804688 40.4609375 65.9306641 40.3515625 65.3173828 40.3515625 64.6884766 40.3515625 64.1220703 40.4521484 63.6181641 40.6533203 63.1142578 40.8544922 62.7246094 41.1357422 62.4492188 41.4970703 62.1738281 41.8583984 62.0361328 42.2753906 62.0361328 42.7480469 62.0361328 43.6972656 62.5888672 44.4433594 63.6943359 44.9863281 64.0341797 45.1542969 64.4716797 45.328125 65.0068359 45.5078125 65.5419922 45.6875 65.9160156 45.8613281 66.1289062 46.0292969 66.3417969 46.1972656 66.4482422 46.4316406 66.4482422 46.7324219 66.4482422 46.9980469 66.3496094 47.2041016 66.1523438 47.3505859 65.9550781 47.4970703 65.6865234 47.5703125 65.3466797 47.5703125 64.8154297 47.5703125 64.4316406 47.4619141 64.1953125 47.2451172 63.9589844 47.0283203 63.8408203 46.6914062 63.8408203 46.234375L63.8408203 46.234375 61.7783203 46.234375C61.7783203 46.796875 61.9199219 47.2939453 62.203125 47.7255859 62.4863281 48.1572266 62.9082031 48.4970703 63.46875 48.7451172 64.0292969 48.9931641 64.6552734 49.1171875 65.3466797 49.1171875zM71.7509766 49L71.7509766 40.46875 69.7001953 40.46875 69.7001953 49 71.7509766 49zM76.6845703 49.1171875C77.4111328 49.1171875 78.0585938 48.9443359 78.6269531 48.5986328 79.1953125 48.2529297 79.6337891 47.7597656 79.9423828 47.1191406 80.2509766 46.4785156 80.4052734 45.7421875 80.4052734 44.9101562L80.4052734 44.9101562 80.4052734 44.5175781C80.4013672 43.6972656 80.2421875 42.9697266 79.9277344 42.3349609 79.6132812 41.7001953 79.1728516 41.2109375 78.6064453 40.8671875 78.0400391 40.5234375 77.3955078 40.3515625 76.6728516 40.3515625 75.9423828 40.3515625 75.2910156 40.5253906 74.71875 40.8730469 74.1464844 41.2207031 73.7070312 41.7138672 73.4003906 42.3525391 73.09375 42.9912109 72.9404297 43.7285156 72.9404297 44.5644531L72.9404297 44.5644531 72.9404297 45.0449219C72.9560547 45.8496094 73.1210938 46.5625 73.4355469 47.1835938 73.75 47.8046875 74.1884766 48.2822266 74.7509766 48.6162109 75.3134766 48.9501953 75.9580078 49.1171875 76.6845703 49.1171875zM76.6845703 47.5117188C76.1376953 47.5117188 75.7255859 47.2871094 75.4482422 46.8378906 75.1708984 46.3886719 75.0322266 45.7460938 75.0322266 44.9101562L75.0322266 44.9101562 75.0380859 44.2832031C75.0966797 42.7363281 75.6416016 41.9628906 76.6728516 41.9628906 77.2001953 41.9628906 77.6054688 42.1826172 77.8886719 42.6220703 78.171875 43.0615234 78.3134766 43.7050781 78.3134766 44.5527344L78.3134766 44.5527344 78.3134766 44.9453125C78.3095703 45.7734375 78.1669922 46.4082031 77.8857422 46.8496094 77.6044922 47.2910156 77.2041016 47.5117188 76.6845703 47.5117188zM83.5224609 49L83.5224609 43.6914062 86.5458984 49 88.5908203 49 88.5908203 40.46875 86.5400391 40.46875 86.5400391 45.7773438 83.5224609 40.46875 81.4658203 40.46875 81.4658203 49 83.5224609 49zM29.9882812 90L29.9882812 76.40625 43.2539062 76.40625 43.2539062 70.078125 29.9882812 70.078125 29.9882812 62.2265625 44.5898438 62.2265625 44.5898438 55.875 21.7617188 55.875 21.7617188 90 29.9882812 90zM56.2382812 90L56.2382812 78.421875 61.4882812 78.421875C65.6445312 78.421875 68.9140625 77.4257812 71.296875 75.4335938 73.6796875 73.4414062 74.8710938 70.78125 74.8710938 67.453125 74.8710938 65.203125 74.3203125 63.1914062 73.21875 61.4179688 72.1171875 59.6445312 70.5625 58.2773438 68.5546875 57.3164062 66.546875 56.3554688 64.2382812 55.875 61.6289062 55.875L61.6289062 55.875 48.0117188 55.875 48.0117188 90 56.2382812 90zM61.6289062 72.0703125L56.2382812 72.0703125 56.2382812 62.2265625 61.7226562 62.2265625C63.2070312 62.2421875 64.3789062 62.7265625 65.2382812 63.6796875 66.0976562 64.6328125 66.5273438 65.90625 66.5273438 67.5 66.5273438 68.953125 66.109375 70.078125 65.2734375 70.875 64.4375 71.671875 63.2226562 72.0703125 61.6289062 72.0703125L61.6289062 72.0703125zM93.2695312 90.46875C96.1757812 90.46875 98.765625 89.7773438 101.039062 88.3945312 103.3125 87.0117188 105.066406 85.0390625 106.300781 82.4765625 107.535156 79.9140625 108.152344 76.96875 108.152344 73.640625L108.152344 73.640625 108.152344 72.0703125C108.136719 68.7890625 107.5 65.8789062 106.242188 63.3398438 104.984375 60.8007812 103.222656 58.84375 100.957031 57.46875 98.6914062 56.09375 96.1132812 55.40625 93.2226562 55.40625 90.3007812 55.40625 87.6953125 56.1015625 85.40625 57.4921875 83.1171875 58.8828125 81.359375 60.8554688 80.1328125 63.4101562 78.90625 65.9648438 78.2929688 68.9140625 78.2929688 72.2578125L78.2929688 72.2578125 78.2929688 74.1796875C78.3554688 77.3984375 79.015625 80.25 80.2734375 82.734375 81.53125 85.21875 83.2851562 87.1289062 85.5351562 88.4648438 87.7851562 89.8007812 90.3632812 90.46875 93.2695312 90.46875zM93.2695312 84.046875C91.0820312 84.046875 89.4335938 83.1484375 88.3242188 81.3515625 87.2148438 79.5546875 86.6601562 76.984375 86.6601562 73.640625L86.6601562 73.640625 86.6835938 71.1328125C86.9179688 64.9453125 89.0976562 61.8515625 93.2226562 61.8515625 95.3320312 61.8515625 96.953125 62.7304688 98.0859375 64.4882812 99.21875 66.2460938 99.7851562 68.8203125 99.7851562 72.2109375L99.7851562 72.2109375 99.7851562 73.78125C99.7695312 77.09375 99.1992188 79.6328125 98.0742188 81.3984375 96.9492188 83.1640625 95.3476562 84.046875 93.2695312 84.046875z"/>
  <path id="satellite-operating-center" d="M56.6074219 49.1171875C57.5878906 49.1171875 58.359375 48.9042969 58.921875 48.4785156 59.484375 48.0527344 59.765625 47.4667969 59.765625 46.7207031 59.765625 45.7871094 59.3046875 45.0546875 58.3828125 44.5234375 58.0039062 44.3046875 57.5195312 44.1005859 56.9296875 43.9111328 56.3398438 43.7216797 55.9277344 43.5380859 55.6933594 43.3603516 55.4589844 43.1826172 55.3417969 42.984375 55.3417969 42.765625 55.3417969 42.515625 55.4482422 42.3095703 55.6611328 42.1474609 55.8740234 41.9853516 56.1640625 41.9042969 56.53125 41.9042969 56.8945312 41.9042969 57.1826172 42 57.3955078 42.1914062 57.6083984 42.3828125 57.7148438 42.6523438 57.7148438 43L57.7148438 43 59.765625 43C59.765625 42.4804688 59.6308594 42.0185547 59.3613281 41.6142578 59.0917969 41.2099609 58.7138672 40.8984375 58.2275391 40.6796875 57.7412109 40.4609375 57.1914062 40.3515625 56.578125 40.3515625 55.9492188 40.3515625 55.3828125 40.4521484 54.8789062 40.6533203 54.375 40.8544922 53.9853516 41.1357422 53.7099609 41.4970703 53.4345703 41.8583984 53.296875 42.2753906 53.296875 42.7480469 53.296875 43.6972656 53.8496094 44.4433594 54.9550781 44.9863281 55.2949219 45.1542969 55.7324219 45.328125 56.2675781 45.5078125 56.8027344 45.6875 57.1767578 45.8613281 57.3896484 46.0292969 57.6025391 46.1972656 57.7089844 46.4316406 57.7089844 46.7324219 57.7089844 46.9980469 57.6103516 47.2041016 57.4130859 47.3505859 57.2158203 47.4970703 56.9472656 47.5703125 56.6074219 47.5703125 56.0761719 47.5703125 55.6923828 47.4619141 55.4560547 47.2451172 55.2197266 47.0283203 55.1015625 46.6914062 55.1015625 46.234375L55.1015625 46.234375 53.0390625 46.234375C53.0390625 46.796875 53.1806641 47.2939453 53.4638672 47.7255859 53.7470703 48.1572266 54.1689453 48.4970703 54.7294922 48.7451172 55.2900391 48.9931641 55.9160156 49.1171875 56.6074219 49.1171875zM64.3242188 49.1171875C65.0507812 49.1171875 65.6982422 48.9443359 66.2666016 48.5986328 66.8349609 48.2529297 67.2734375 47.7597656 67.5820312 47.1191406 67.890625 46.4785156 68.0449219 45.7421875 68.0449219 44.9101562L68.0449219 44.9101562 68.0449219 44.5175781C68.0410156 43.6972656 67.8818359 42.9697266 67.5673828 42.3349609 67.2529297 41.7001953 66.8125 41.2109375 66.2460938 40.8671875 65.6796875 40.5234375 65.0351562 40.3515625 64.3125 40.3515625 63.5820312 40.3515625 62.9306641 40.5253906 62.3583984 40.8730469 61.7861328 41.2207031 61.3466797 41.7138672 61.0400391 42.3525391 60.7333984 42.9912109 60.5800781 43.7285156 60.5800781 44.5644531L60.5800781 44.5644531 60.5800781 45.0449219C60.5957031 45.8496094 60.7607422 46.5625 61.0751953 47.1835938 61.3896484 47.8046875 61.828125 48.2822266 62.390625 48.6162109 62.953125 48.9501953 63.5976562 49.1171875 64.3242188 49.1171875zM64.3242188 47.5117188C63.7773438 47.5117188 63.3652344 47.2871094 63.0878906 46.8378906 62.8105469 46.3886719 62.671875 45.7460938 62.671875 44.9101562L62.671875 44.9101562 62.6777344 44.2832031C62.7363281 42.7363281 63.28125 41.9628906 64.3125 41.9628906 64.8398438 41.9628906 65.2451172 42.1826172 65.5283203 42.6220703 65.8115234 43.0615234 65.953125 43.7050781 65.953125 44.5527344L65.953125 44.5527344 65.953125 44.9453125C65.9492188 45.7734375 65.8066406 46.4082031 65.5253906 46.8496094 65.2441406 47.2910156 64.84375 47.5117188 64.3242188 47.5117188zM72.4804688 49.1171875C73.1601562 49.1171875 73.7646484 48.9921875 74.2939453 48.7421875 74.8232422 48.4921875 75.234375 48.1396484 75.5273438 47.6845703 75.8203125 47.2294922 75.9804688 46.7050781 76.0078125 46.1113281L76.0078125 46.1113281 73.9628906 46.1113281C73.9472656 46.5957031 73.8144531 46.9492188 73.5644531 47.171875 73.3144531 47.3945312 72.953125 47.5058594 72.4804688 47.5058594 71.921875 47.5058594 71.5283203 47.3105469 71.2998047 46.9199219 71.0712891 46.5292969 70.9570312 45.8789062 70.9570312 44.96875L70.9570312 44.96875 70.9570312 44.3652344C70.96875 43.5253906 71.09375 42.9140625 71.3320312 42.53125 71.5703125 42.1484375 71.9453125 41.9570312 72.4570312 41.9570312 72.9609375 41.9570312 73.3359375 42.0703125 73.5820312 42.296875 73.828125 42.5234375 73.9589844 42.8964844 73.9746094 43.4160156L73.9746094 43.4160156 76.0253906 43.4160156C75.9394531 42.4589844 75.5820312 41.7080078 74.953125 41.1630859 74.3242188 40.6181641 73.4921875 40.3457031 72.4570312 40.3457031 71.7382812 40.3457031 71.1054688 40.5166016 70.5585938 40.8583984 70.0117188 41.2001953 69.5927734 41.6845703 69.3017578 42.3115234 69.0107422 42.9384766 68.8652344 43.6699219 68.8652344 44.5058594L68.8652344 44.5058594 68.8652344 44.9277344C68.8652344 46.2597656 69.1875 47.2910156 69.8320312 48.0214844 70.4765625 48.7519531 71.359375 49.1171875 72.4804688 49.1171875zM29.9882812 90L29.9882812 76.40625 43.2539062 76.40625 43.2539062 70.078125 29.9882812 70.078125 29.9882812 62.2265625 44.5898438 62.2265625 44.5898438 55.875 21.7617188 55.875 21.7617188 90 29.9882812 90zM56.2382812 90L56.2382812 78.421875 61.4882812 78.421875C65.6445312 78.421875 68.9140625 77.4257812 71.296875 75.4335938 73.6796875 73.4414062 74.8710938 70.78125 74.8710938 67.453125 74.8710938 65.203125 74.3203125 63.1914062 73.21875 61.4179688 72.1171875 59.6445312 70.5625 58.2773438 68.5546875 57.3164062 66.546875 56.3554688 64.2382812 55.875 61.6289062 55.875L61.6289062 55.875 48.0117188 55.875 48.0117188 90 56.2382812 90zM61.6289062 72.0703125L56.2382812 72.0703125 56.2382812 62.2265625 61.7226562 62.2265625C63.2070312 62.2421875 64.3789062 62.7265625 65.2382812 63.6796875 66.0976562 64.6328125 66.5273438 65.90625 66.5273438 67.5 66.5273438 68.953125 66.109375 70.078125 65.2734375 70.875 64.4375 71.671875 63.2226562 72.0703125 61.6289062 72.0703125L61.6289062 72.0703125zM93.2695312 90.46875C96.1757812 90.46875 98.765625 89.7773438 101.039062 88.3945312 103.3125 87.0117188 105.066406 85.0390625 106.300781 82.4765625 107.535156 79.9140625 108.152344 76.96875 108.152344 73.640625L108.152344 73.640625 108.152344 72.0703125C108.136719 68.7890625 107.5 65.8789062 106.242188 63.3398438 104.984375 60.8007812 103.222656 58.84375 100.957031 57.46875 98.6914062 56.09375 96.1132812 55.40625 93.2226562 55.40625 90.3007812 55.40625 87.6953125 56.1015625 85.40625 57.4921875 83.1171875 58.8828125 81.359375 60.8554688 80.1328125 63.4101562 78.90625 65.9648438 78.2929688 68.9140625 78.2929688 72.2578125L78.2929688 72.2578125 78.2929688 74.1796875C78.3554688 77.3984375 79.015625 80.25 80.2734375 82.734375 81.53125 85.21875 83.2851562 87.1289062 85.5351562 88.4648438 87.7851562 89.8007812 90.3632812 90.46875 93.2695312 90.46875zM93.2695312 84.046875C91.0820312 84.046875 89.4335938 83.1484375 88.3242188 81.3515625 87.2148438 79.5546875 86.6601562 76.984375 86.6601562 73.640625L86.6601562 73.640625 86.6835938 71.1328125C86.9179688 64.9453125 89.0976562 61.8515625 93.2226562 61.8515625 95.3320312 61.8515625 96.953125 62.7304688 98.0859375 64.4882812 99.21875 66.2460938 99.7851562 68.8203125 99.7851562 72.2109375L99.7851562 72.2109375 99.7851562 73.78125C99.7695312 77.09375 99.1992188 79.6328125 98.0742188 81.3984375 96.9492188 83.1640625 95.3476562 84.046875 93.2695312 84.046875z"/>
  <path id="tree" d="M54.8701172 49L54.8701172 42.0566406 57.4306641 42.0566406 57.4306641 40.46875 50.2998047 40.46875 50.2998047 42.0566406 52.8134766 42.0566406 52.8134766 49 54.8701172 49zM60.3544922 49L60.3544922 45.9882812 61.4677734 45.9882812 62.9736328 49 65.1767578 49 65.1767578 48.9121094 63.3955078 45.4726562C63.9072266 45.2304688 64.2832031 44.9140625 64.5234375 44.5234375 64.7636719 44.1328125 64.8837891 43.640625 64.8837891 43.046875 64.8837891 42.2265625 64.5986328 41.5917969 64.0283203 41.1425781 63.4580078 40.6933594 62.6669922 40.46875 61.6552734 40.46875L61.6552734 40.46875 58.2978516 40.46875 58.2978516 49 60.3544922 49zM61.6552734 44.4003906L60.3544922 44.4003906 60.3544922 42.0566406 61.6552734 42.0566406C62.0419922 42.0566406 62.3349609 42.1611328 62.5341797 42.3701172 62.7333984 42.5791016 62.8330078 42.8671875 62.8330078 43.234375 62.8330078 43.6015625 62.734375 43.8876953 62.5371094 44.0927734 62.3398438 44.2978516 62.0458984 44.4003906 61.6552734 44.4003906L61.6552734 44.4003906zM72.0029297 49L72.0029297 47.4179688 68.1826172 47.4179688 68.1826172 45.3847656 71.4169922 45.3847656 71.4169922 43.8554688 68.1826172 43.8554688 68.1826172 42.0566406 72.0146484 42.0566406 72.0146484 40.46875 66.1259766 40.46875 66.1259766 49 72.0029297 49zM78.7177734 49L78.7177734 47.4179688 74.8974609 47.4179688 74.8974609 45.3847656 78.1318359 45.3847656 78.1318359 43.8554688 74.8974609 43.8554688 74.8974609 42.0566406 78.7294922 42.0566406 78.7294922 40.46875 72.8408203 40.46875 72.8408203 49 78.7177734 49zM29.9882812 90L29.9882812 76.40625 43.2539062 76.40625 43.2539062 70.078125 29.9882812 70.078125 29.9882812 62.2265625 44.5898438 62.2265625 44.5898438 55.875 21.7617188 55.875 21.7617188 90 29.9882812 90zM56.2382812 90L56.2382812 78.421875 61.4882812 78.421875C65.6445312 78.421875 68.9140625 77.4257812 71.296875 75.4335938 73.6796875 73.4414062 74.8710938 70.78125 74.8710938 67.453125 74.8710938 65.203125 74.3203125 63.1914062 73.21875 61.4179688 72.1171875 59.6445312 70.5625 58.2773438 68.5546875 57.3164062 66.546875 56.3554688 64.2382812 55.875 61.6289062 55.875L61.6289062 55.875 48.0117188 55.875 48.0117188 90 56.2382812 90zM61.6289062 72.0703125L56.2382812 72.0703125 56.2382812 62.2265625 61.7226562 62.2265625C63.2070312 62.2421875 64.3789062 62.7265625 65.2382812 63.6796875 66.0976562 64.6328125 66.5273438 65.90625 66.5273438 67.5 66.5273438 68.953125 66.109375 70.078125 65.2734375 70.875 64.4375 71.671875 63.2226562 72.0703125 61.6289062 72.0703125L61.6289062 72.0703125zM93.2695312 90.46875C96.1757812 90.46875 98.765625 89.7773438 101.039062 88.3945312 103.3125 87.0117188 105.066406 85.0390625 106.300781 82.4765625 107.535156 79.9140625 108.152344 76.96875 108.152344 73.640625L108.152344 73.640625 108.152344 72.0703125C108.136719 68.7890625 107.5 65.8789062 106.242188 63.3398438 104.984375 60.8007812 103.222656 58.84375 100.957031 57.46875 98.6914062 56.09375 96.1132812 55.40625 93.2226562 55.40625 90.3007812 55.40625 87.6953125 56.1015625 85.40625 57.4921875 83.1171875 58.8828125 81.359375 60.8554688 80.1328125 63.4101562 78.90625 65.9648438 78.2929688 68.9140625 78.2929688 72.2578125L78.2929688 72.2578125 78.2929688 74.1796875C78.3554688 77.3984375 79.015625 80.25 80.2734375 82.734375 81.53125 85.21875 83.2851562 87.1289062 85.5351562 88.4648438 87.7851562 89.8007812 90.3632812 90.46875 93.2695312 90.46875zM93.2695312 84.046875C91.0820312 84.046875 89.4335938 83.1484375 88.3242188 81.3515625 87.2148438 79.5546875 86.6601562 76.984375 86.6601562 73.640625L86.6601562 73.640625 86.6835938 71.1328125C86.9179688 64.9453125 89.0976562 61.8515625 93.2226562 61.8515625 95.3320312 61.8515625 96.953125 62.7304688 98.0859375 64.4882812 99.21875 66.2460938 99.7851562 68.8203125 99.7851562 72.2109375L99.7851562 72.2109375 99.7851562 73.78125C99.7695312 77.09375 99.1992188 79.6328125 98.0742188 81.3984375 96.9492188 83.1640625 95.3476562 84.046875 93.2695312 84.046875z"/>
</svg>
