<svg xmlns="http://www.w3.org/2000/svg" height="128" width="128" viewBox="0 0 128 128">
	<g id="add-large" viewBox="0 0 128 128"> <g fill-rule="evenodd"> <path d="M63.5 127C28.43 127 0 98.57 0 63.5S28.43 0 63.5 0 127 28.43 127 63.5 98.57 127 63.5 127zm0-10.583c29.225 0 52.917-23.692 52.917-52.917S92.725 10.583 63.5 10.583 10.583 34.275 10.583 63.5s23.692 52.917 52.917 52.917z"/> <path d="M66.5 59.5H91v7H66.5V91h-7V66.5H35v-7h24.5V35h7v24.5z"/> </g> </g>
	<g id="add-small" viewBox="0 0 128 128"> <path d="M66.5 59.5H91v7H66.5V91h-7V66.5H35v-7h24.5V35h7v24.5z" fill-rule="evenodd"/> </g>
	<g id="close-large" viewBox="0 0 128 128"> <g fill-rule="evenodd"> <path d="M64 128C28.654 128 0 99.346 0 64 0 28.654 28.654 0 64 0c35.346 0 64 28.654 64 64 0 35.346-28.654 64-64 64zm0-10.667c29.455 0 53.333-23.878 53.333-53.333S93.455 10.667 64 10.667 10.667 34.545 10.667 64 34.545 117.333 64 117.333z"/> <path d="M69.028 64l22.628 22.627-5.029 5.029L64 69.028 41.373 91.656l-5.029-5.029L58.972 64 36.344 41.373l5.029-5.029L64 58.972l22.627-22.628 5.029 5.029L69.028 64z"/> </g> </g>
	<g id="close-small" viewBox="0 0 128 128"> <path d="M69.028 64l22.628 22.627-5.029 5.029L64 69.028 41.373 91.656l-5.029-5.029L58.972 64 36.344 41.373l5.029-5.029L64 58.972l22.627-22.628 5.029 5.029L69.028 64z" fill-rule="evenodd"/> </g>
	<g id="collapse" viewBox="0 0 128 128"> <path d="M91.316 23.179L114.36.137l13.455 13.455-23.178 23.178 14.002 14.286-44.4 6.472 6.344-45.302 10.734 10.953zm-49.98 78.439L15.09 127.863 1.635 114.408l26.381-26.38-10.862-11.084 44.4-6.472-6.344 45.302-13.874-14.156z" fill-rule="evenodd"/> </g>
	<g id="expand" viewBox="0 0 128 128"> <path d="M20.765 90.258l25.318-25.319 14.785 14.784L35.4 105.191l15.386 15.698L2 128l6.97-49.778 11.795 12.036zm84.47-56.035L76.396 63.06 61.612 48.277 90.599 19.29 78.663 7.11 127.45 0l-6.97 49.778-15.244-15.555z" fill-rule="evenodd"/> </g>
	<g id="lock" viewBox="0 0 128 128"> <g fill-rule="evenodd"> <path d="M89.65 60.235V30.118c0-8.317-6.788-15.06-15.162-15.06s-15.163 6.743-15.163 15.06v30.117H44.163V30.118C44.163 13.484 57.74 0 74.488 0c16.748 0 30.325 13.484 30.325 30.118v30.117H89.65zM29 60.235h90.975V128H29z"/> </g> </g>
	<g id="unlock" viewBox="0 0 128 128"> <g fill-rule="evenodd"> <path d="M45.488 60.235V30.118c0-8.317-6.789-15.06-15.163-15.06s-15.162 6.743-15.162 15.06v30.117H0V30.118C0 13.484 13.577 0 30.325 0 47.073 0 60.65 13.484 60.65 30.118v30.117H45.488zM29 60.235h90.975V128H29z"/> </g> </g>
	<g id="search" viewBox="0 0 128 128"> <path d="M65.25 70.14l.794.794L54.8 82.18l1.505 1.505-39.619 39.62-14.007-14.008 39.619-39.62 1.837 1.838 11.127-11.127a36.403 36.403 0 0 1-6.5-20.817C48.762 19.374 65.136 3 85.334 3c20.198 0 36.572 16.374 36.572 36.571 0 20.198-16.374 36.572-36.572 36.572A36.4 36.4 0 0 1 65.25 70.14zM85.333 67c15.149 0 27.429-12.28 27.429-27.429 0-15.148-12.28-27.428-27.429-27.428-15.148 0-27.428 12.28-27.428 27.428C57.905 54.72 70.185 67 85.333 67z" fill-rule="evenodd"/> </g>
</svg>