<svg xmlns="http://www.w3.org/2000/svg" height="128" width="128" viewBox="0 0 128 128">
	
		<g id="altitude">
			<g fill-rule="evenodd">
				<path
					d="M36.453 17.339l5.726 9.056c.908 1.436.51 3.357-.888 4.29-1.398.932-3.268.524-4.177-.912l-5.76-9.11c-6.78 4.966-12.368 11.417-16.263 18.86l10.048 4.725c1.567.737 2.245 2.616 1.514 4.196a3.12 3.12 0 0 1-4.16 1.527l-9.993-4.7a53.55 53.55 0 0 0-3.518 19.144c0 1.777.087 3.543.258 5.294l10.784-1.451c1.706-.23 3.284.909 3.524 2.543.24 1.634-.949 3.146-2.656 3.375l-10.737 1.445a53.445 53.445 0 0 0 5.677 15.057l97.88-.767a53.422 53.422 0 0 0 5.225-14.143l-11.83-1.592c-1.706-.23-2.895-1.74-2.655-3.375.24-1.634 1.818-2.773 3.524-2.543l11.892 1.6c.18-1.8.272-3.615.272-5.443 0-18.582-9.465-34.998-23.923-44.85l-6.454 10.208c-.908 1.436-2.779 1.844-4.177.912-1.399-.933-1.796-2.854-.888-4.29l6.309-9.978c-7.401-3.937-15.815-6.274-24.761-6.535v11.47c0 1.71-1.257 3.098-2.807 3.098s-2.807-1.387-2.807-3.099V9.991a55.985 55.985 0 0 0-24.179 7.348zm82.796 79.433l-1.217 2.043-107.507.843-1.25-2.022A61.916 61.916 0 0 1 0 64.969C0 30.189 28.656 2 64 2s64 28.19 64 62.969a61.904 61.904 0 0 1-8.75 31.803z"
				/>
				<path
					d="M68.983 57.168c22.401-8.452 34.588-12.622 36.56-12.51-.315 1.526-11.265 8.613-32.848 21.263-.658 4.478-4.594 7.92-9.352 7.92-5.218 0-9.448-4.142-9.448-9.25 0-5.11 4.23-9.25 9.448-9.25a9.54 9.54 0 0 1 5.64 1.827zM32 127a3 3 0 0 1-3-3v-16a3 3 0 0 1 3-3h62a3 3 0 0 1 3 3v16a3 3 0 0 1-3 3H32z"
				/>
			</g>
		</g>
		<g id="antenna">
			<g fill-rule="nonzero">
				<path
					d="M46.752 38.215c0-8.799 6.951-15.759 15.641-15.759 8.422 0 15.641 6.96 15.641 15.76 0 6.458-4.01 11.812-9.384 14.182V128H56.137V52.398c-5.642-2.102-9.385-7.724-9.385-14.183zM28.453-.503l5.728 5.728a41.868 41.868 0 0 0-2.019 1.89c-16.189 16.189-16.124 42.502.146 58.772.66.66 1.337 1.294 2.029 1.9l-5.7 5.7a47.946 47.946 0 0 1-4.155-3.7c-18.44-18.44-18.514-48.262-.166-66.61a47.242 47.242 0 0 1 4.137-3.68z"
				/>
				<path
					d="M40.111 63.519c-12.635-14.545-12.69-36.205-.126-50.687l5.035 5.035c-8.902 12.011-8.86 28.586.1 40.642l-5.009 5.01zM96.333 73.485l-5.728-5.727a41.868 41.868 0 0 0 2.019-1.89c16.19-16.19 16.124-42.503-.146-58.773a42.495 42.495 0 0 0-2.028-1.9l5.699-5.7a47.946 47.946 0 0 1 4.155 3.701c18.44 18.44 18.514 48.262.166 66.61a47.242 47.242 0 0 1-4.137 3.68z"
				/>
				<path
					d="M84.675 12.832c12.635 14.545 12.69 36.205.126 50.687l-5.035-5.035c8.902-12.011 8.861-28.586-.1-40.642l5.009-5.01z"
				/>
			</g>
		</g>
		<g id="antenna-off">
			<path
				d="M53 128H0l21.893-25 6.562 6.126 14.481-1.393L53 128zm-3.581-57.595L70.708 58.24 58.542 79.53 79 99.986 30.026 104 22 95.974 26.013 47l23.406 23.405z"
				fill-rule="evenodd"
			/>
		</g>
		<g id="antenna-receive">
			<g fill-rule="evenodd">
				<circle cx="84" cy="49" r="4" />
				<circle cx="99.5" cy="34.5" r="6.5" />
				<circle cx="115.5" cy="19.5" r="8.5" />
				<path
					d="M53 128H0l21.893-25 6.562 6.126 14.481-1.393L53 128zm-3.581-57.595L70.708 58.24 58.542 79.53 79 99.986 30.026 104 22 95.974 26.013 47l23.406 23.405z"
				/>
			</g>
		</g>
		<g id="antenna-transmit">
			<g fill-rule="evenodd">
				<path
					d="M127.559 74h-7.254c.077-1.253.116-2.517.116-3.79 0-33.485-27.146-60.631-60.632-60.631-1.272 0-2.536.04-3.789.116V2.441A65.095 65.095 0 0 1 63.579 2C99.158 2 128 30.842 128 66.421c0 2.564-.15 5.093-.441 7.579z"
				/>
				<path
					d="M56 17c30.928 0 56 25.072 56 56h-8.13C103.52 46.719 82.281 25.48 56 25.13V17z"
				/>
				<path
					d="M56 32c21.375 2.049 38.343 19.807 40 42h-7.107C86.437 56.29 73.034 42.235 56 39.395V32zM53 128H0l21.893-25 6.562 6.126 14.481-1.393L53 128zm-3.581-57.595L70.708 58.24 58.542 79.53 79 99.986 30.026 104 22 95.974 26.013 47l23.406 23.405z"
				/>
			</g>
		</g>
		<g id="equipment">
			<g fill-rule="evenodd">
				<path
					d="M0 11.255C0 7.248 3.164 4 7.11 4h113.78c3.927 0 7.11 3.22 7.11 7.255v21.773c0 4.007-3.164 7.255-7.11 7.255H7.11c-3.927 0-7.11-3.22-7.11-7.255V11.255zm7.055 3.295v14.175c0 1.905 1.582 3.495 3.533 3.495h106.824c1.923 0 3.533-1.564 3.533-3.495V14.55c0-1.904-1.582-3.495-3.533-3.495H10.588c-1.923 0-3.533 1.565-3.533 3.495z"
				/>
				<path
					d="M18.142 18.11h7.055v7.055h-7.055zM32.252 18.11h7.055v7.055h-7.055zM46.362 18.11h7.055v7.055h-7.055zM0 53.586c0-4.007 3.164-7.255 7.11-7.255h113.78c3.927 0 7.11 3.22 7.11 7.255v21.773c0 4.007-3.164 7.255-7.11 7.255H7.11c-3.927 0-7.11-3.22-7.11-7.255V53.586zm7.055 3.295v14.175c0 1.904 1.582 3.495 3.533 3.495h106.824c1.923 0 3.533-1.565 3.533-3.495V56.881c0-1.904-1.582-3.495-3.533-3.495H10.588c-1.923 0-3.533 1.565-3.533 3.495z"
				/>
				<path
					d="M18.142 61.449h7.055v7.055h-7.055zM32.252 61.449h7.055v7.055h-7.055zM46.362 61.449h7.055v7.055h-7.055zM0 95.917c0-4.007 3.164-7.256 7.11-7.256h113.78c3.927 0 7.11 3.22 7.11 7.256v21.773c0 4.007-3.164 7.255-7.11 7.255H7.11c-3.927 0-7.11-3.22-7.11-7.255V95.917zm7.055 4.302v14.176c0 1.904 1.582 3.495 3.533 3.495h106.824c1.923 0 3.533-1.565 3.533-3.495v-14.176c0-1.904-1.582-3.495-3.533-3.495H10.588c-1.923 0-3.533 1.565-3.533 3.495z"
				/>
				<path
					d="M18.142 103.78h7.055v7.055h-7.055zM32.252 103.78h7.055v7.055h-7.055zM46.362 103.78h7.055v7.055h-7.055z"
				/>
			</g>
		</g>
		<g id="mission">
			<path
				d="M64 127C29.206 127 1 98.794 1 64S29.206 1 64 1s63 28.206 63 63-28.206 63-63 63zm0-9.947c29.3 0 53.053-23.753 53.053-53.053 0-29.3-23.753-53.053-53.053-53.053C34.7 10.947 10.947 34.7 10.947 64c0 29.3 23.753 53.053 53.053 53.053zm.492-12.694c-22.018 0-39.867-17.849-39.867-39.867 0-22.018 17.85-39.867 39.867-39.867 22.018 0 39.867 17.85 39.867 39.867 0 22.018-17.849 39.867-39.867 39.867zm0-9.966c16.514 0 29.9-13.387 29.9-29.9 0-16.514-13.386-29.901-29.9-29.901-16.513 0-29.9 13.387-29.9 29.9 0 16.514 13.387 29.9 29.9 29.9zM64 80.734c-9.242 0-16.734-7.492-16.734-16.734S54.758 47.266 64 47.266 80.734 54.758 80.734 64 73.242 80.734 64 80.734z"
				fill-rule="evenodd"
			/>
		</g>
		<g id="payload">
			<g fill-rule="nonzero">
				<path
					d="M18.345 35.566l45.81 24.04 46.474-24.389-45.376-25.112-46.908 25.461zm-4.331 7.425v48.703l45.353 24.184V66.791l-45.353-23.8zm101.407-.591L68.94 66.79v50.223l46.48-25.272V42.4zM64.728 0l58.58 32.427v63.715L64.728 128 5 96.142V32.427L64.728 0z"
				/>
				<ellipse cx="63.591" cy="23.579" rx="3.38" ry="3.368" />
				<ellipse cx="63.591" cy="33.684" rx="3.38" ry="3.368" />
				<ellipse cx="63.591" cy="44.912" rx="3.38" ry="3.368" />
				<ellipse cx="79.365" cy="72.982" rx="3.38" ry="3.368" />
				<ellipse cx="90.633" cy="78.596" rx="3.38" ry="3.368" />
				<ellipse cx="101.9" cy="84.211" rx="3.38" ry="3.368" />
				<path
					d="M25.281 87.579a3.374 3.374 0 0 1-3.38-3.368 3.374 3.374 0 0 1 3.38-3.369 3.374 3.374 0 0 1 3.38 3.369 3.374 3.374 0 0 1-3.38 3.368zM48.943 76.35a3.374 3.374 0 0 1-3.38-3.368 3.374 3.374 0 0 1 3.38-3.368 3.374 3.374 0 0 1 3.38 3.368 3.374 3.374 0 0 1-3.38 3.369zM36.549 81.965a3.374 3.374 0 0 1-3.38-3.369 3.374 3.374 0 0 1 3.38-3.368 3.374 3.374 0 0 1 3.38 3.368 3.374 3.374 0 0 1-3.38 3.369z"
				/>
			</g>
		</g>
		<g id="processor">
			<g fill-rule="evenodd">
				<path
					d="M16 22.44c0-3.557 2.903-6.44 6.44-6.44h84.12c3.557 0 6.44 2.903 6.44 6.44v84.12c0 3.557-2.903 6.44-6.44 6.44H22.44c-3.557 0-6.44-2.903-6.44-6.44V22.44zM28 34a6 6 0 1 0 0-12 6 6 0 0 0 0 12zm71 71a6 6 0 1 0 0-12 6 6 0 0 0 0 12zM33 0h7v10h-7zM52 0h7v10h-7zM71 0h7v10h-7zM90 0h7v10h-7zM33 118h7v10h-7zM0 33h10v7H0zM0 52h10v7H0zM0 71h10v7H0zM0 90h10v7H0zM118 33h10v7h-10zM118 52h10v7h-10zM118 71h10v7h-10zM118 90h10v7h-10zM52 118h7v10h-7zM71 118h7v10h-7zM90 118h7v10h-7z"
				/>
			</g>
		</g>
		<g id="processor-alt">
			<path
				d="M57 81v3.285H0V47h46.652V13.667H128V27H57v54zm7.146-4V30.484H128V84H99.03v19.9H18V128H2.991A2.992 2.992 0 0 1 0 125.009V91h81.587l.008-1H82V77h-.296l.216-25.86H128l-.958-7.14H70.658v33h-6.512zM128 7H37.984v29.168H0V2.991A2.992 2.992 0 0 1 2.991 0H125.01A2.992 2.992 0 0 1 128 2.991V7zm0 83.753v34.256a2.992 2.992 0 0 1-2.991 2.991H32.78v-16.494h73.714V90.753H128z"
				fill-rule="evenodd"
			/>
		</g>
		<g id="netcom">
			<path
				d="M41.884 78.97a25.711 25.711 0 0 1-4.575-14.683c0-14.265 11.565-25.83 25.83-25.83 2.966 0 5.813.5 8.466 1.42l5.457-12.857a14.347 14.347 0 0 1-7.609-12.67C69.453 6.425 75.878 0 83.803 0c7.924 0 14.35 6.425 14.35 14.35S91.726 28.7 83.802 28.7a14.39 14.39 0 0 1-3.572-.448L74.735 41.2c8.442 4.248 14.234 12.992 14.234 23.087 0 .947-.05 1.882-.15 2.803l11.101 2.767c1.792-5.882 7.261-10.161 13.73-10.161 7.926 0 14.35 6.422 14.35 14.35 0 7.924-6.425 14.349-14.35 14.349S99.3 81.97 99.3 74.045c0-.28.009-.558.023-.834L88.23 70.445a25.862 25.862 0 0 1-10.526 15.177l6.121 14.422a14.334 14.334 0 0 1 4.57-.743c7.925 0 14.35 6.424 14.35 14.35 0 7.924-6.425 14.349-14.35 14.349s-14.349-6.425-14.349-14.35a14.34 14.34 0 0 1 6.707-12.147l-6.001-14.137a25.721 25.721 0 0 1-11.612 2.75c-7.59 0-14.415-3.273-19.141-8.485L26.524 96.293a14.283 14.283 0 0 1 2.175 7.599c0 7.926-6.424 14.35-14.35 14.35-7.924 0-14.349-6.424-14.349-14.35 0-7.925 6.425-14.349 14.35-14.349 3.911 0 7.456 1.566 10.045 4.103l17.49-14.676z"
				fill-rule="nonzero"
			/>
		</g>
		<g id="propulsion-power">
			<path
				d="M28.588 0h64.824C96.498 0 99 2.513 99 5.614v116.772c0 3.1-2.502 5.614-5.588 5.614H28.588c-3.086 0-5.588-2.513-5.588-5.614V5.614C23 2.514 25.502 0 28.588 0zm47.258 11L34 62.038l22.666 6.268L38.795 118 85 62.485l-21.795-7.163L75.845 11z"
				fill-rule="nonzero"
			/>
		</g>
		<g id="thermal">
			<path
				d="M34.273 17.963C34.273 8.6 41.848 1 51.203 1h.593c9.356 0 16.931 7.6 16.931 16.963v56.85C76.3 80.233 81 89.018 81 98.645 81 114.868 67.782 128 51.5 128S22 114.868 22 98.646c0-9.627 4.7-18.412 12.273-23.834V17.963zm7.272 60.63C34.112 82.243 29 89.851 29 98.646 29 110.992 39.074 121 51.5 121S74 110.992 74 98.646c0-8.795-5.112-16.404-12.545-20.053a10.02 10.02 0 0 0 .272-2.325V17.963c0-5.502-4.446-9.963-9.93-9.963h-.593c-5.485 0-9.931 4.46-9.931 9.963v58.305c0 .8.094 1.579.272 2.325zm5.568 5.21V32h8.774v51.803C62.31 85.684 67 91.593 67 98.59 67 107.1 60.06 114 51.5 114c-8.56 0-15.5-6.9-15.5-15.411 0-6.997 4.69-12.905 11.113-14.786zM78 15h21v6.913H78V15zm0 11.522h15.167v6.913H78v-6.913zm0 11.521h21v6.914H78v-6.914zm0 11.522h15.167v6.913H78v-6.913zm0 11.522h21V68H78v-6.913z"
				fill-rule="nonzero"
			/>
		</g>
		<g id="satellite-off">
			<g fill-rule="evenodd">
				<path
					d="M32 48.867L49.8 31 66 58.156 57.654 67zM14.032 100L0 86.404l21.408-21.622L37.878 60 41 63.455l-6.425 17.628zM85.968 0L100 13.596 78.592 35.218 62.122 40 59 36.545l6.425-17.628z"
				/>
			</g>
		</g>
		<g id="satellite-receive">
			<g fill-rule="evenodd">
				<ellipse cx="83.5" cy="74" rx="4.5" ry="4" />
				<circle cx="101" cy="87" r="6" />
				<circle cx="119.5" cy="103.5" r="8.5" />
				<path
					d="M32 48.867L49.8 31 66 58.156 57.654 67zM14.032 100L0 86.404l21.408-21.622L37.878 60 41 63.455l-6.425 17.628zM85.968 0L100 13.596 78.592 35.218 62.122 40 59 36.545l6.425-17.628z"
				/>
			</g>
		</g>
		<g id="satellite-transmit">
			<g fill-rule="evenodd">
				<path
					d="M61 126.59v-10.285c1.166.077 2.341.116 3.526.116 29.213 0 52.895-23.682 52.895-52.895 0-1.185-.039-2.36-.116-3.526h10.285c.27 2.313.41 4.667.41 7.053C128 100.16 101.16 127 68.053 127c-2.386 0-4.74-.14-7.053-.41z"
				/>
				<path
					d="M107 60c-1.737 24.606-21.394 44.263-46 46v-9.115C80.027 94.07 95.07 79.027 97.885 60H107zM88 60c-3.688 13.039-13.961 23.312-27 27v-7.957A34.661 34.661 0 0 0 80.043 60H88zM32 48.867L49.8 31 66 58.156 57.654 67zM14.032 100L0 86.404l21.408-21.622L37.878 60 41 63.455l-6.425 17.628zM85.968 0L100 13.596 78.592 35.218 62.122 40 59 36.545l6.425-17.628z"
				/>
			</g>
		</g>
		<g id="progress"> 
			<circle
				transform='rotate(-90 60 60) translate(-1 1)'
				stroke="rgba(40, 63, 88, 1)"
				stroke-width="10"
				fill="transparent"
				r="56"
				cx="60"
				cy="60"
			/>
			<circle
				transform='rotate(-90 60 60) translate(-1 1)'
				class="progress-ring__circle"
				stroke-width="10"
				stroke-dasharray="351.8583772021 351.8583772021"
				stroke-dashoffset="var(--monitoring-progress, 1)"
				stroke-linecap="round"
				fill="transparent"
				r="56"
				cx="60"
				cy="60"
			/>
		</g>
</svg>