<svg xmlns="http://www.w3.org/2000/svg" xmlns:xlink="http://www.w3.org/1999/xlink" viewBox="0 0 64 64">
  <defs>
    
    <linearGradient id="b" x1="95.084%" x2="50%" y1="15.688%" y2="100%">
      <stop offset="0%" stop-color="#4DACFF"/>
      <stop offset="100%" stop-color="#333" stop-opacity="0"/>
    </linearGradient>
  </defs>
  <g fill="none" fill-rule="evenodd">
    
		<path fill="#333" d="M32 64C14.327 64 0 49.673 0 32 0 14.327 14.327 0 32 0c17.673 0 32 14.327 32 32 0 17.673-14.327 32-32 32zm0-6c14.36 0 26-11.64 26-26S46.36 6 32 6 6 17.64 6 32s11.64 26 26 26z"/>
    <path fill="url(#b)" d="M51.908 8.236l-2.358 3.245A26.894 26.894 0 0 0 32 5C17.088 5 5 17.088 5 32s12.088 27 27 27c1.129 0 2.242-.07 3.334-.204l4.435 3.222C37.286 62.66 34.683 63 32 63 14.88 63 1 49.12 1 32 1 14.88 14.88 1 32 1c7.579 0 14.522 2.72 19.908 7.236z"/>
    <circle cx="52" cy="11" r="4" fill="#4DACFF"/>
  </g>
</svg>