<?xml version="1.0" encoding="UTF-8" standalone="no"?>
<svg width="23px" height="23px" viewBox="0 0 23 23" version="1.1" xmlns="http://www.w3.org/2000/svg" xmlns:xlink="http://www.w3.org/1999/xlink" xmlns:sketch="http://www.bohemiancoding.com/sketch/ns">
    <!-- Generator: Sketch 3.3.2 (12043) - http://www.bohemiancoding.com/sketch -->
    <title>Expand/Focus</title>
    <desc>Created with Sketch.</desc>
    <defs></defs>
    <g id="Page-1" stroke="none" stroke-width="1" fill="none" fill-rule="evenodd" sketch:type="MSPage">
        <g id="Expand/Focus" sketch:type="MSLayerGroup">
            <rect id="Background" stroke="#7ABFE3" sketch:type="MSShapeGroup" x="0" y="0" width="23" height="23" rx="3"></rect>
            <g id="Lines" transform="translate(4.000000, 4.000000)" stroke="#B4BBC2" sketch:type="MSShapeGroup">
                <path d="M8.5,6.50000017 L14.4694039,0.648056674" id="line"></path>
                <path d="M1.27587891,14.3505859 L6.5,8.5" id="line"></path>
                <path d="M0.617783237,7.32167006 L6.58718713,1.46972656" id="line" transform="translate(3.148057, 4.469727) rotate(-90.000000) translate(-3.148057, -4.469727) "></path>
                <path d="M8.84228515,14.2324219 L14.0664062,8.38183594" id="line" transform="translate(11.342285, 11.724121) rotate(-90.000000) translate(-11.342285, -11.724121) "></path>
            </g>
            <g id="Triangles" transform="translate(2.000000, 3.000000)" fill="#C6CCD1" sketch:type="MSShapeGroup">
                <path d="M11.841259,0.366210938 L17.841259,0.366210938 L17.841259,6.60839843 L11.841259,0.366210938 Z" id="tri"></path>
                <path d="M1,0 L7,0 L7,6.2421875 L1,0 Z" id="tri" transform="translate(4.000000, 3.121094) rotate(-90.000000) translate(-4.000000, -3.121094) "></path>
                <path d="M11.841259,10.3662109 L17.841259,10.3662109 L17.841259,16.6083984 L11.841259,10.3662109 Z" id="tri" transform="translate(14.841259, 13.487305) scale(1, -1) translate(-14.841259, -13.487305) "></path>
                <path d="M1,10 L7,10 L7,16.2421875 L1,10 Z" id="tri" transform="translate(4.000000, 13.121094) scale(1, -1) rotate(-90.000000) translate(-4.000000, -13.121094) "></path>
            </g>
        </g>
    </g>
</svg>