<svg width="64px" height="64px" viewBox="0 0 64 64" version="1.1" xmlns="http://www.w3.org/2000/svg" xmlns:xlink="http://www.w3.org/1999/xlink">
  
  <defs>
        <path d="M32 64C14.327 64 0 49.673 0 32 0 14.327 14.327 0 32 0c17.673 0 32 14.327 32 32 0 17.673-14.327 32-32 32zm0-6c14.36 0 26-11.64 26-26S46.36 6 32 6 6 17.64 6 32s11.64 26 26 26z" id="a"/>
        <filter x="-3.1%" y="-3.1%" width="106.2%" height="106.2%" filterUnits="objectBoundingBox" id="b">
            <feGaussianBlur stdDeviation="1.5" in="SourceAlpha" result="shadowBlurInner1"/>
            <feOffset dy="1" in="shadowBlurInner1" result="shadowOffsetInner1"/>
            <feComposite in="shadowOffsetInner1" in2="SourceAlpha" operator="arithmetic" k2="-1" k3="1" result="shadowInnerInner1"/>
            <feColorMatrix values="0 0 0 0 0 0 0 0 0 0 0 0 0 0 0 0 0 0 0.5 0" in="shadowInnerInner1"/>
        </filter>
        <linearGradient x1="50%" y1="6.903%" x2="50%" y2="100%" id="c">
            <stop stop-color="#60b5fc" offset="0%"/>
            <stop stop-color="#010F1B" stop-opacity="0" offset="100%"/>
        </linearGradient>
    </defs>
    <use fill="#313234" xlink:href="#a"/>
		<use fill="#000" filter="url(#b)" xlink:href="#a"/>
		<g id="progress" fill="none" fill-rule="evenodd">
			<path d="M50.908 7.236l-2.358 3.245A26.894 26.894 0 0 0 31 4C16.088 4 4 16.088 4 31s12.088 27 27 27c1.129 0 2.242-.07 3.334-.204l4.435 3.222C36.286 61.66 33.683 62 31 62 13.88 62 0 48.12 0 31 0 13.88 13.88 0 31 0c7.579 0 14.522 2.72 19.908 7.236z" fill="url(#c)" transform="translate(1 1)"/>
			<path d="M50.683 11.836c.908 0 1.681-.306 1.926-1.134.053-.18.17-.322.17-.519C52.779 9.078 52.105 8 51 8a2 2 0 0 0-2 2c0 1.105.579 1.836 1.683 1.836z" fill="#60b5fc"/>
		</g>
  
  <animateTransform 
		xlink:href="#progress"
		attributeName="transform" 
		attributeType="XML"
		type="rotate"
		from="0 32 32"
		to="360 32 32" 
		dur="1.2s"
		repeatCount="indefinite"
		fill="freeze" 
		restart="whenNotActive"/>
  
</svg>