<svg xmlns="http://www.w3.org/2000/svg" width="62" height="62">
  <defs>
    <linearGradient id="a" x1="50%" x2="50%" y1="6.903%" y2="100%">
      <stop offset="0%" stop-color="#008FFF"/>
      <stop offset="100%" stop-color="#000F1A" stop-opacity="0"/>
    </linearGradient>
  </defs>
  <g fill="none" fill-rule="evenodd">
    <path fill="url(#a)" d="M38.77 61.018A31.022 31.022 0 0 1 31 62C13.88 62 0 48.12 0 31 0 13.88 13.88 0 31 0c7.579 0 14.522 2.72 19.908 7.236l-2.358 3.245A26.894 26.894 0 0 0 31 4C16.088 4 4 16.088 4 31s12.088 27 27 27c1.129 0 2.242-.07 3.334-.204l4.435 3.222z"/>
    <path fill="#008FFF" d="M49.683 10.836c.908 0 1.681-.306 1.926-1.134.053-.18.17-.322.17-.519C51.779 8.078 51.105 7 50 7a2 2 0 0 0-2 2c0 1.105.579 1.836 1.683 1.836z"/>
  </g>
</svg>